0
SECTION
2
HEADER
9
$ACADVER
1
AC1009
9
$INSBASE
10
0
20
0
30
0
0
ENDSEC
0
SECTION
2
TABLES
0
TABLE
2
LTYPE
70
1
0
LTYPE
2
CONTINUOUS
70
0
3
Solid line
72
65
73
0
40
0
0
ENDTAB
0
TABLE
2
LAYER
70
22
0
LAYER
2
0
70
0
62
7
6
CONTINUOUS
0
LAYER
2
crack_alligator_DOWN_1X_0
70
0
62
7
6
CONTINUOUS
0
LAYER
2
crack_alligator_ORIGINAL_0
70
0
62
7
6
CONTINUOUS
0
LAYER
2
crack_alligator_UP_1X_0
70
0
62
7
6
CONTINUOUS
0
LAYER
2
crack_diag_DOWN_1X_0
70
0
62
7
6
CONTINUOUS
0
LAYER
2
crack_diag_ORIGINAL_0
70
0
62
7
6
CONTINUOUS
0
LAYER
2
crack_diag_UP_1X_0
70
0
62
7
6
CONTINUOUS
0
LAYER
2
crack_long_DOWN_1X_0
70
0
62
7
6
CONTINUOUS
0
LAYER
2
crack_long_ORIGINAL_0
70
0
62
7
6
CONTINUOUS
0
LAYER
2
crack_long_UP_1X_0
70
0
62
7
6
CONTINUOUS
0
LAYER
2
crack_trans_DOWN_1X_0
70
0
62
7
6
CONTINUOUS
0
LAYER
2
crack_trans_ORIGINAL_0
70
0
62
7
6
CONTINUOUS
0
LAYER
2
crack_trans_UP_1X_0
70
0
62
7
6
CONTINUOUS
0
LAYER
2
damage_DOWN_1X_0
70
0
62
7
6
CONTINUOUS
0
LAYER
2
damage_ORIGINAL_0
70
0
62
7
6
CONTINUOUS
0
LAYER
2
damage_UP_1X_0
70
0
62
7
6
CONTINUOUS
0
LAYER
2
rebar_DOWN_1X_0
70
0
62
7
6
CONTINUOUS
0
LAYER
2
rebar_ORIGINAL_0
70
0
62
7
6
CONTINUOUS
0
LAYER
2
rebar_UP_1X_0
70
0
62
7
6
CONTINUOUS
0
LAYER
2
seepage_DOWN_1X_0
70
0
62
7
6
CONTINUOUS
0
LAYER
2
seepage_ORIGINAL_0
70
0
62
7
6
CONTINUOUS
0
LAYER
2
seepage_UP_1X_0
70
0
62
7
6
CONTINUOUS
0
ENDTAB
0
ENDSEC
0
SECTION
2
BLOCKS
0
ENDSEC
0
SECTION
2
ENTITIES
0
LINE
8
crack_long_UP_1X_0
10
0
20
0
30
0
11
19.805048
21
0.053642
31
0
0
LINE
8
crack_long_ORIGINAL_0
10
39.805048
20
0
30
0
11
49.707572
21
0.026821
31
0
0
LINE
8
crack_long_DOWN_1X_0
10
69.707572
20
0
30
0
11
74.658834
21
0.013411
31
0
0
LINE
8
crack_alligator_UP_1X_0
10
0
20
22.738896
30
0
11
11.93921
21
25.28448
31
0
0
LINE
8
crack_alligator_UP_1X_0
10
5.969604
20
24.011688
30
0
11
9.288036
21
26.61516
31
0
0
LINE
8
crack_alligator_UP_1X_0
10
15.920106
20
27.365532
30
0
11
15.081936
21
27.455404
31
0
0
LINE
8
crack_alligator_UP_1X_0
10
15.081936
20
27.455404
30
0
11
14.239784
21
27.492574
31
0
0
LINE
8
crack_alligator_UP_1X_0
10
14.239784
20
27.492574
30
0
11
13.396956
21
27.476896
31
0
0
LINE
8
crack_alligator_UP_1X_0
10
13.396956
20
27.476896
30
0
11
12.556768
21
27.40843
31
0
0
LINE
8
crack_alligator_UP_1X_0
10
12.556768
20
27.40843
30
0
11
11.722522
21
27.287446
31
0
0
LINE
8
crack_alligator_UP_1X_0
10
11.722522
20
27.287446
30
0
11
10.897496
21
27.114418
31
0
0
LINE
8
crack_alligator_UP_1X_0
10
10.897496
20
27.114418
30
0
11
10.084936
21
26.89003
31
0
0
LINE
8
crack_alligator_UP_1X_0
10
10.084936
20
26.89003
30
0
11
9.288036
21
26.61516
31
0
0
LINE
8
crack_alligator_UP_1X_0
10
12.556768
20
27.40843
30
0
11
15.982674
21
26.365034
31
0
0
LINE
8
crack_alligator_UP_1X_0
10
9.257138
20
24.721448
30
0
11
14.22126
21
22.595176
31
0
0
LINE
8
crack_alligator_UP_1X_0
10
3.834956
20
23.548394
30
0
11
11.639786
21
22
31
0
0
LINE
8
crack_alligator_ORIGINAL_0
10
35.982674
20
22.369448
30
0
11
41.952279
21
23.64224
31
0
0
LINE
8
crack_alligator_ORIGINAL_0
10
38.967476
20
23.005844
30
0
11
40.626692
21
24.30758
31
0
0
LINE
8
crack_alligator_ORIGINAL_0
10
43.942727
20
24.682766
30
0
11
43.523642
21
24.727702
31
0
0
LINE
8
crack_alligator_ORIGINAL_0
10
43.523642
20
24.727702
30
0
11
43.102566
21
24.746287
31
0
0
LINE
8
crack_alligator_ORIGINAL_0
10
43.102566
20
24.746287
30
0
11
42.681152
21
24.738448
31
0
0
LINE
8
crack_alligator_ORIGINAL_0
10
42.681152
20
24.738448
30
0
11
42.261058
21
24.704215
31
0
0
LINE
8
crack_alligator_ORIGINAL_0
10
42.261058
20
24.704215
30
0
11
41.843935
21
24.643723
31
0
0
LINE
8
crack_alligator_ORIGINAL_0
10
41.843935
20
24.643723
30
0
11
41.431422
21
24.557209
31
0
0
LINE
8
crack_alligator_ORIGINAL_0
10
41.431422
20
24.557209
30
0
11
41.025142
21
24.445015
31
0
0
LINE
8
crack_alligator_ORIGINAL_0
10
41.025142
20
24.445015
30
0
11
40.626692
21
24.30758
31
0
0
LINE
8
crack_alligator_ORIGINAL_0
10
42.261058
20
24.704215
30
0
11
43.974011
21
24.182517
31
0
0
LINE
8
crack_alligator_ORIGINAL_0
10
40.611243
20
23.360724
30
0
11
43.093304
21
22.297588
31
0
0
LINE
8
crack_alligator_ORIGINAL_0
10
37.900152
20
22.774197
30
0
11
41.802567
21
22
31
0
0
LINE
8
crack_alligator_DOWN_1X_0
10
63.974011
20
22.184724
30
0
11
66.958814
21
22.82112
31
0
0
LINE
8
crack_alligator_DOWN_1X_0
10
65.466412
20
22.502922
30
0
11
66.29602
21
23.15379
31
0
0
LINE
8
crack_alligator_DOWN_1X_0
10
67.954037
20
23.341383
30
0
11
67.744495
21
23.363851
31
0
0
LINE
8
crack_alligator_DOWN_1X_0
10
67.744495
20
23.363851
30
0
11
67.533957
21
23.373144
31
0
0
LINE
8
crack_alligator_DOWN_1X_0
10
67.533957
20
23.373144
30
0
11
67.32325
21
23.369224
31
0
0
LINE
8
crack_alligator_DOWN_1X_0
10
67.32325
20
23.369224
30
0
11
67.113203
21
23.352107
31
0
0
LINE
8
crack_alligator_DOWN_1X_0
10
67.113203
20
23.352107
30
0
11
66.904642
21
23.321862
31
0
0
LINE
8
crack_alligator_DOWN_1X_0
10
66.904642
20
23.321862
30
0
11
66.698385
21
23.278605
31
0
0
LINE
8
crack_alligator_DOWN_1X_0
10
66.698385
20
23.278605
30
0
11
66.495245
21
23.222507
31
0
0
LINE
8
crack_alligator_DOWN_1X_0
10
66.495245
20
23.222507
30
0
11
66.29602
21
23.15379
31
0
0
LINE
8
crack_alligator_DOWN_1X_0
10
67.113203
20
23.352107
30
0
11
67.969679
21
23.091258
31
0
0
LINE
8
crack_alligator_DOWN_1X_0
10
66.288296
20
22.680362
30
0
11
67.529326
21
22.148794
31
0
0
LINE
8
crack_alligator_DOWN_1X_0
10
64.93275
20
22.387099
30
0
11
66.883958
21
22
31
0
0
LINE
8
seepage_UP_1X_0
10
5.911254
20
56.779924
30
0
11
5.587618
21
56.976844
31
0
0
LINE
8
seepage_UP_1X_0
10
5.587618
20
56.976844
30
0
11
5.23515
21
57.115712
31
0
0
LINE
8
seepage_UP_1X_0
10
5.23515
20
57.115712
30
0
11
4.86417
21
57.19246
31
0
0
LINE
8
seepage_UP_1X_0
10
4.86417
20
57.19246
30
0
11
4.485536
21
57.204844
31
0
0
LINE
8
seepage_UP_1X_0
10
4.485536
20
57.204844
30
0
11
4.110332
21
57.1525
31
0
0
LINE
8
seepage_UP_1X_0
10
4.110332
20
57.1525
30
0
11
3.749544
21
57.03696
31
0
0
LINE
8
seepage_UP_1X_0
10
3.749544
20
57.03696
30
0
11
3.413734
21
56.861606
31
0
0
LINE
8
seepage_UP_1X_0
10
3.413734
20
56.861606
30
0
11
3.11273
21
56.631574
31
0
0
LINE
8
seepage_UP_1X_0
10
3.11273
20
56.631574
30
0
11
2.855348
21
56.353596
31
0
0
LINE
8
seepage_UP_1X_0
10
2.855348
20
56.353596
30
0
11
2.649122
21
56.03581
31
0
0
LINE
8
seepage_UP_1X_0
10
2.649122
20
56.03581
30
0
11
2.500086
21
55.68752
31
0
0
LINE
8
seepage_UP_1X_0
10
2.500086
20
55.68752
30
0
11
2.412606
21
55.318922
31
0
0
LINE
8
seepage_UP_1X_0
10
2.412606
20
55.318922
30
0
11
2.389242
21
54.940806
31
0
0
LINE
8
seepage_UP_1X_0
10
2.389242
20
54.940806
30
0
11
2.43068
21
54.564242
31
0
0
LINE
8
seepage_UP_1X_0
10
7.597726
20
58.016244
30
0
11
7.475
21
58.143018
31
0
0
LINE
8
seepage_UP_1X_0
10
7.475
20
58.143018
30
0
11
7.332728
21
58.247382
31
0
0
LINE
8
seepage_UP_1X_0
10
7.332728
20
58.247382
30
0
11
7.17495
21
58.326372
31
0
0
LINE
8
seepage_UP_1X_0
10
7.17495
20
58.326372
30
0
11
7.006148
21
58.377744
31
0
0
LINE
8
seepage_UP_1X_0
10
7.006148
20
58.377744
30
0
11
6.831116
21
58.40004
31
0
0
LINE
8
seepage_UP_1X_0
10
6.831116
20
58.40004
30
0
11
6.654824
21
58.392626
31
0
0
LINE
8
seepage_UP_1X_0
10
6.654824
20
58.392626
30
0
11
6.482282
21
58.355712
31
0
0
LINE
8
seepage_UP_1X_0
10
6.482282
20
58.355712
30
0
11
6.31839
21
58.290348
31
0
0
LINE
8
seepage_UP_1X_0
10
6.31839
20
58.290348
30
0
11
6.1678
21
58.19839
31
0
0
LINE
8
seepage_UP_1X_0
10
6.1678
20
58.19839
30
0
11
6.034794
21
58.08245
31
0
0
LINE
8
seepage_UP_1X_0
10
6.034794
20
58.08245
30
0
11
5.923144
21
57.94582
31
0
0
LINE
8
seepage_UP_1X_0
10
5.923144
20
57.94582
30
0
11
5.836026
21
57.79238
31
0
0
LINE
8
seepage_UP_1X_0
10
5.836026
20
57.79238
30
0
11
5.77591
21
57.62649
31
0
0
LINE
8
seepage_UP_1X_0
10
5.77591
20
57.62649
30
0
11
5.744508
21
57.45286
31
0
0
LINE
8
seepage_UP_1X_0
10
5.744508
20
57.45286
30
0
11
5.742708
21
57.276424
31
0
0
LINE
8
seepage_UP_1X_0
10
5.742708
20
57.276424
30
0
11
5.770564
21
57.10219
31
0
0
LINE
8
seepage_UP_1X_0
10
5.770564
20
57.10219
30
0
11
5.827282
21
56.935108
31
0
0
LINE
8
seepage_UP_1X_0
10
5.827282
20
56.935108
30
0
11
5.911254
21
56.779924
31
0
0
LINE
8
seepage_UP_1X_0
10
11.056856
20
58.016244
30
0
11
10.661058
21
58.250886
31
0
0
LINE
8
seepage_UP_1X_0
10
10.661058
20
58.250886
30
0
11
10.234142
21
58.42251
31
0
0
LINE
8
seepage_UP_1X_0
10
10.234142
20
58.42251
30
0
11
9.786068
21
58.527112
31
0
0
LINE
8
seepage_UP_1X_0
10
9.786068
20
58.527112
30
0
11
9.327292
21
58.562252
31
0
0
LINE
8
seepage_UP_1X_0
10
9.327292
20
58.562252
30
0
11
8.868514
21
58.527112
31
0
0
LINE
8
seepage_UP_1X_0
10
8.868514
20
58.527112
30
0
11
8.42044
21
58.42251
31
0
0
LINE
8
seepage_UP_1X_0
10
8.42044
20
58.42251
30
0
11
7.993524
21
58.250886
31
0
0
LINE
8
seepage_UP_1X_0
10
7.993524
20
58.250886
30
0
11
7.597726
21
58.016244
31
0
0
LINE
8
seepage_UP_1X_0
10
13.712972
20
58.016244
30
0
11
13.454384
21
58.207494
31
0
0
LINE
8
seepage_UP_1X_0
10
13.454384
20
58.207494
30
0
11
13.168748
21
58.355332
31
0
0
LINE
8
seepage_UP_1X_0
10
13.168748
20
58.355332
30
0
11
12.863286
21
58.456016
31
0
0
LINE
8
seepage_UP_1X_0
10
12.863286
20
58.456016
30
0
11
12.545726
21
58.507004
31
0
0
LINE
8
seepage_UP_1X_0
10
12.545726
20
58.507004
30
0
11
12.2241
21
58.507004
31
0
0
LINE
8
seepage_UP_1X_0
10
12.2241
20
58.507004
30
0
11
11.90654
21
58.456016
31
0
0
LINE
8
seepage_UP_1X_0
10
11.90654
20
58.456016
30
0
11
11.60108
21
58.355332
31
0
0
LINE
8
seepage_UP_1X_0
10
11.60108
20
58.355332
30
0
11
11.315442
21
58.207494
31
0
0
LINE
8
seepage_UP_1X_0
10
11.315442
20
58.207494
30
0
11
11.056856
21
58.016244
31
0
0
LINE
8
seepage_UP_1X_0
10
15.442536
20
56.473874
30
0
11
15.272628
21
56.712332
31
0
0
LINE
8
seepage_UP_1X_0
10
15.272628
20
56.712332
30
0
11
15.087854
21
56.939462
31
0
0
LINE
8
seepage_UP_1X_0
10
15.087854
20
56.939462
30
0
11
14.888962
21
57.15434
31
0
0
LINE
8
seepage_UP_1X_0
10
14.888962
20
57.15434
30
0
11
14.676768
21
57.356092
31
0
0
LINE
8
seepage_UP_1X_0
10
14.676768
20
57.356092
30
0
11
14.452132
21
57.543892
31
0
0
LINE
8
seepage_UP_1X_0
10
14.452132
20
57.543892
30
0
11
14.215972
21
57.716978
31
0
0
LINE
8
seepage_UP_1X_0
10
14.215972
20
57.716978
30
0
11
13.96925
21
57.874642
31
0
0
LINE
8
seepage_UP_1X_0
10
13.96925
20
57.874642
30
0
11
13.712972
21
58.016244
31
0
0
LINE
8
seepage_UP_1X_0
10
16.169314
20
54.54783
30
0
11
16.299662
21
54.685422
31
0
0
LINE
8
seepage_UP_1X_0
10
16.299662
20
54.685422
30
0
11
16.404508
21
54.843312
31
0
0
LINE
8
seepage_UP_1X_0
10
16.404508
20
54.843312
30
0
11
16.48075
21
55.01683
31
0
0
LINE
8
seepage_UP_1X_0
10
16.48075
20
55.01683
30
0
11
16.526138
21
55.200846
31
0
0
LINE
8
seepage_UP_1X_0
10
16.526138
20
55.200846
30
0
11
16.539324
21
55.389916
31
0
0
LINE
8
seepage_UP_1X_0
10
16.539324
20
55.389916
30
0
11
16.519924
21
55.57845
31
0
0
LINE
8
seepage_UP_1X_0
10
16.519924
20
55.57845
30
0
11
16.468506
21
55.760872
31
0
0
LINE
8
seepage_UP_1X_0
10
16.468506
20
55.760872
30
0
11
16.386594
21
55.931788
31
0
0
LINE
8
seepage_UP_1X_0
10
16.386594
20
55.931788
30
0
11
16.27661
21
56.086142
31
0
0
LINE
8
seepage_UP_1X_0
10
16.27661
20
56.086142
30
0
11
16.141804
21
56.21937
31
0
0
LINE
8
seepage_UP_1X_0
10
16.141804
20
56.21937
30
0
11
15.986168
21
56.32753
31
0
0
LINE
8
seepage_UP_1X_0
10
15.986168
20
56.32753
30
0
11
15.8143
21
56.407426
31
0
0
LINE
8
seepage_UP_1X_0
10
15.8143
20
56.407426
30
0
11
15.631286
21
56.456692
31
0
0
LINE
8
seepage_UP_1X_0
10
15.631286
20
56.456692
30
0
11
15.442536
21
56.473874
31
0
0
LINE
8
seepage_UP_1X_0
10
13.836512
20
52.710492
30
0
11
14.030424
21
52.538376
31
0
0
LINE
8
seepage_UP_1X_0
10
14.030424
20
52.538376
30
0
11
14.251224
21
52.40246
31
0
0
LINE
8
seepage_UP_1X_0
10
14.251224
20
52.40246
30
0
11
14.492232
21
52.306852
31
0
0
LINE
8
seepage_UP_1X_0
10
14.492232
20
52.306852
30
0
11
14.74616
21
52.254448
31
0
0
LINE
8
seepage_UP_1X_0
10
14.74616
20
52.254448
30
0
11
15.005328
21
52.246828
31
0
0
LINE
8
seepage_UP_1X_0
10
15.005328
20
52.246828
30
0
11
15.261896
21
52.284226
31
0
0
LINE
8
seepage_UP_1X_0
10
15.261896
20
52.284226
30
0
11
15.508104
21
52.36551
31
0
0
LINE
8
seepage_UP_1X_0
10
15.508104
20
52.36551
30
0
11
15.736508
21
52.488222
31
0
0
LINE
8
seepage_UP_1X_0
10
15.736508
20
52.488222
30
0
11
15.940196
21
52.648648
31
0
0
LINE
8
seepage_UP_1X_0
10
15.940196
20
52.648648
30
0
11
16.11301
21
52.841938
31
0
0
LINE
8
seepage_UP_1X_0
10
16.11301
20
52.841938
30
0
11
16.249722
21
53.062248
31
0
0
LINE
8
seepage_UP_1X_0
10
16.249722
20
53.062248
30
0
11
16.346196
21
53.30291
31
0
0
LINE
8
seepage_UP_1X_0
10
16.346196
20
53.30291
30
0
11
16.399518
21
53.556648
31
0
0
LINE
8
seepage_UP_1X_0
10
16.399518
20
53.556648
30
0
11
16.40807
21
53.815786
31
0
0
LINE
8
seepage_UP_1X_0
10
16.40807
20
53.815786
30
0
11
16.371598
21
54.072486
31
0
0
LINE
8
seepage_UP_1X_0
10
16.371598
20
54.072486
30
0
11
16.291202
21
54.318988
31
0
0
LINE
8
seepage_UP_1X_0
10
16.291202
20
54.318988
30
0
11
16.169314
21
54.54783
31
0
0
LINE
8
seepage_UP_1X_0
10
11.612786
20
51.66168
30
0
11
11.759542
21
51.513882
31
0
0
LINE
8
seepage_UP_1X_0
10
11.759542
20
51.513882
30
0
11
11.928452
21
51.39202
31
0
0
LINE
8
seepage_UP_1X_0
10
11.928452
20
51.39202
30
0
11
12.114988
21
51.29936
31
0
0
LINE
8
seepage_UP_1X_0
10
12.114988
20
51.29936
30
0
11
12.314146
21
51.23839
31
0
0
LINE
8
seepage_UP_1X_0
10
12.314146
20
51.23839
30
0
11
12.520586
21
51.210744
31
0
0
LINE
8
seepage_UP_1X_0
10
12.520586
20
51.210744
30
0
11
12.728768
21
51.217164
31
0
0
LINE
8
seepage_UP_1X_0
10
12.728768
20
51.217164
30
0
11
12.933112
21
51.257476
31
0
0
LINE
8
seepage_UP_1X_0
10
12.933112
20
51.257476
30
0
11
13.128136
21
51.330602
31
0
0
LINE
8
seepage_UP_1X_0
10
13.128136
20
51.330602
30
0
11
13.308608
21
51.434578
31
0
0
LINE
8
seepage_UP_1X_0
10
13.308608
20
51.434578
30
0
11
13.46969
21
51.566616
31
0
0
LINE
8
seepage_UP_1X_0
10
13.46969
20
51.566616
30
0
11
13.60706
21
51.723176
31
0
0
LINE
8
seepage_UP_1X_0
10
13.60706
20
51.723176
30
0
11
13.717034
21
51.900056
31
0
0
LINE
8
seepage_UP_1X_0
10
13.717034
20
51.900056
30
0
11
13.796664
21
52.092516
31
0
0
LINE
8
seepage_UP_1X_0
10
13.796664
20
52.092516
30
0
11
13.843812
21
52.295392
31
0
0
LINE
8
seepage_UP_1X_0
10
13.843812
20
52.295392
30
0
11
13.857214
21
52.503242
31
0
0
LINE
8
seepage_UP_1X_0
10
13.857214
20
52.503242
30
0
11
13.836512
21
52.710492
31
0
0
LINE
8
seepage_UP_1X_0
10
9.697912
20
50.61287
30
0
11
9.878792
21
50.51724
31
0
0
LINE
8
seepage_UP_1X_0
10
9.878792
20
50.51724
30
0
11
10.072896
21
50.452536
31
0
0
LINE
8
seepage_UP_1X_0
10
10.072896
20
50.452536
30
0
11
10.274976
21
50.420508
31
0
0
LINE
8
seepage_UP_1X_0
10
10.274976
20
50.420508
30
0
11
10.479574
21
50.422016
31
0
0
LINE
8
seepage_UP_1X_0
10
10.479574
20
50.422016
30
0
11
10.68116
21
50.457026
31
0
0
LINE
8
seepage_UP_1X_0
10
10.68116
20
50.457026
30
0
11
10.874288
21
50.524586
31
0
0
LINE
8
seepage_UP_1X_0
10
10.874288
20
50.524586
30
0
11
11.053738
21
50.622874
31
0
0
LINE
8
seepage_UP_1X_0
10
11.053738
20
50.622874
30
0
11
11.21466
21
50.749232
31
0
0
LINE
8
seepage_UP_1X_0
10
11.21466
20
50.749232
30
0
11
11.352708
21
50.900248
31
0
0
LINE
8
seepage_UP_1X_0
10
11.352708
20
50.900248
30
0
11
11.46415
21
51.071838
31
0
0
LINE
8
seepage_UP_1X_0
10
11.46415
20
51.071838
30
0
11
11.545974
21
51.259368
31
0
0
LINE
8
seepage_UP_1X_0
10
11.545974
20
51.259368
30
0
11
11.59597
21
51.45777
31
0
0
LINE
8
seepage_UP_1X_0
10
11.59597
20
51.45777
30
0
11
11.612786
21
51.66168
31
0
0
LINE
8
seepage_UP_1X_0
10
8.52428
20
52.093544
30
0
11
8.470564
21
51.925436
31
0
0
LINE
8
seepage_UP_1X_0
10
8.470564
20
51.925436
30
0
11
8.444886
21
51.750834
31
0
0
LINE
8
seepage_UP_1X_0
10
8.444886
20
51.750834
30
0
11
8.447926
21
51.57438
31
0
0
LINE
8
seepage_UP_1X_0
10
8.447926
20
51.57438
30
0
11
8.479604
21
51.400764
31
0
0
LINE
8
seepage_UP_1X_0
10
8.479604
20
51.400764
30
0
11
8.539078
21
51.234606
31
0
0
LINE
8
seepage_UP_1X_0
10
8.539078
20
51.234606
30
0
11
8.624768
21
51.080324
31
0
0
LINE
8
seepage_UP_1X_0
10
8.624768
20
51.080324
30
0
11
8.734392
21
50.94202
31
0
0
LINE
8
seepage_UP_1X_0
10
8.734392
20
50.94202
30
0
11
8.865036
21
50.823372
31
0
0
LINE
8
seepage_UP_1X_0
10
8.865036
20
50.823372
30
0
11
9.013228
21
50.727536
31
0
0
LINE
8
seepage_UP_1X_0
10
9.013228
20
50.727536
30
0
11
9.175026
21
50.657058
31
0
0
LINE
8
seepage_UP_1X_0
10
9.175026
20
50.657058
30
0
11
9.346126
21
50.613812
31
0
0
LINE
8
seepage_UP_1X_0
10
9.346126
20
50.613812
30
0
11
9.52198
21
50.598952
31
0
0
LINE
8
seepage_UP_1X_0
10
9.52198
20
50.598952
30
0
11
9.697912
21
50.61287
31
0
0
LINE
8
seepage_UP_1X_0
10
5.991704
20
50.2427
30
0
11
6.343592
21
50.192152
31
0
0
LINE
8
seepage_UP_1X_0
10
6.343592
20
50.192152
30
0
11
6.69894
21
50.202558
31
0
0
LINE
8
seepage_UP_1X_0
10
6.69894
20
50.202558
30
0
11
7.047268
21
50.273614
31
0
0
LINE
8
seepage_UP_1X_0
10
7.047268
20
50.273614
30
0
11
7.3783
21
50.403222
31
0
0
LINE
8
seepage_UP_1X_0
10
7.3783
20
50.403222
30
0
11
7.682276
21
50.58756
31
0
0
LINE
8
seepage_UP_1X_0
10
7.682276
20
50.58756
30
0
11
7.950224
21
50.821192
31
0
0
LINE
8
seepage_UP_1X_0
10
7.950224
20
50.821192
30
0
11
8.174248
21
51.097226
31
0
0
LINE
8
seepage_UP_1X_0
10
8.174248
20
51.097226
30
0
11
8.347736
21
51.40752
31
0
0
LINE
8
seepage_UP_1X_0
10
8.347736
20
51.40752
30
0
11
8.46557
21
51.742924
31
0
0
LINE
8
seepage_UP_1X_0
10
8.46557
20
51.742924
30
0
11
8.52428
21
52.093544
31
0
0
LINE
8
seepage_UP_1X_0
10
2.717886
20
50.2427
30
0
11
2.985528
21
49.988084
31
0
0
LINE
8
seepage_UP_1X_0
10
2.985528
20
49.988084
30
0
11
3.292178
21
49.78211
31
0
0
LINE
8
seepage_UP_1X_0
10
3.292178
20
49.78211
30
0
11
3.629106
21
49.630644
31
0
0
LINE
8
seepage_UP_1X_0
10
3.629106
20
49.630644
30
0
11
3.986706
21
49.538004
31
0
0
LINE
8
seepage_UP_1X_0
10
3.986706
20
49.538004
30
0
11
4.354794
21
49.506828
31
0
0
LINE
8
seepage_UP_1X_0
10
4.354794
20
49.506828
30
0
11
4.722884
21
49.538004
31
0
0
LINE
8
seepage_UP_1X_0
10
4.722884
20
49.538004
30
0
11
5.080484
21
49.630644
31
0
0
LINE
8
seepage_UP_1X_0
10
5.080484
20
49.630644
30
0
11
5.41741
21
49.78211
31
0
0
LINE
8
seepage_UP_1X_0
10
5.41741
20
49.78211
30
0
11
5.724062
21
49.988084
31
0
0
LINE
8
seepage_UP_1X_0
10
5.724062
20
49.988084
30
0
11
5.991704
21
50.2427
31
0
0
LINE
8
seepage_UP_1X_0
10
1.606024
20
48.453552
30
0
11
1.791816
21
48.415256
31
0
0
LINE
8
seepage_UP_1X_0
10
1.791816
20
48.415256
30
0
11
1.981432
21
48.409706
31
0
0
LINE
8
seepage_UP_1X_0
10
1.981432
20
48.409706
30
0
11
2.169146
21
48.437066
31
0
0
LINE
8
seepage_UP_1X_0
10
2.169146
20
48.437066
30
0
11
2.349288
21
48.496512
31
0
0
LINE
8
seepage_UP_1X_0
10
2.349288
20
48.496512
30
0
11
2.516418
21
48.586248
31
0
0
LINE
8
seepage_UP_1X_0
10
2.516418
20
48.586248
30
0
11
2.66549
21
48.703562
31
0
0
LINE
8
seepage_UP_1X_0
10
2.66549
20
48.703562
30
0
11
2.792
21
48.844914
31
0
0
LINE
8
seepage_UP_1X_0
10
2.792
20
48.844914
30
0
11
2.892126
21
49.006034
31
0
0
LINE
8
seepage_UP_1X_0
10
2.892126
20
49.006034
30
0
11
2.962848
21
49.182056
31
0
0
LINE
8
seepage_UP_1X_0
10
2.962848
20
49.182056
30
0
11
3.002028
21
49.367664
31
0
0
LINE
8
seepage_UP_1X_0
10
3.002028
20
49.367664
30
0
11
3.008482
21
49.55725
31
0
0
LINE
8
seepage_UP_1X_0
10
3.008482
20
49.55725
30
0
11
2.982016
21
49.745092
31
0
0
LINE
8
seepage_UP_1X_0
10
2.982016
20
49.745092
30
0
11
2.923428
21
49.925516
31
0
0
LINE
8
seepage_UP_1X_0
10
2.923428
20
49.925516
30
0
11
2.83449
21
50.093072
31
0
0
LINE
8
seepage_UP_1X_0
10
2.83449
20
50.093072
30
0
11
2.717886
21
50.2427
31
0
0
LINE
8
seepage_UP_1X_0
10
1.297172
20
50.48948
30
0
11
1.197948
21
50.235042
31
0
0
LINE
8
seepage_UP_1X_0
10
1.197948
20
50.235042
30
0
11
1.137662
21
49.96868
31
0
0
LINE
8
seepage_UP_1X_0
10
1.137662
20
49.96868
30
0
11
1.117656
21
49.696312
31
0
0
LINE
8
seepage_UP_1X_0
10
1.117656
20
49.696312
30
0
11
1.13837
21
49.424
31
0
0
LINE
8
seepage_UP_1X_0
10
1.13837
20
49.424
30
0
11
1.199348
21
49.157794
31
0
0
LINE
8
seepage_UP_1X_0
10
1.199348
20
49.157794
30
0
11
1.299234
21
48.903614
31
0
0
LINE
8
seepage_UP_1X_0
10
1.299234
20
48.903614
30
0
11
1.435804
21
48.667114
31
0
0
LINE
8
seepage_UP_1X_0
10
1.435804
20
48.667114
30
0
11
1.606024
21
48.453552
31
0
0
LINE
8
seepage_UP_1X_0
10
2.717886
20
50.2427
30
0
11
2.578216
21
50.37872
31
0
0
LINE
8
seepage_UP_1X_0
10
2.578216
20
50.37872
30
0
11
2.417384
21
50.488912
31
0
0
LINE
8
seepage_UP_1X_0
10
2.417384
20
50.488912
30
0
11
2.240108
21
50.570044
31
0
0
LINE
8
seepage_UP_1X_0
10
2.240108
20
50.570044
30
0
11
2.051588
21
50.619736
31
0
0
LINE
8
seepage_UP_1X_0
10
2.051588
20
50.619736
30
0
11
1.857354
21
50.636528
31
0
0
LINE
8
seepage_UP_1X_0
10
1.857354
20
50.636528
30
0
11
1.663102
21
50.619932
31
0
0
LINE
8
seepage_UP_1X_0
10
1.663102
20
50.619932
30
0
11
1.47453
21
50.570432
31
0
0
LINE
8
seepage_UP_1X_0
10
1.47453
20
50.570432
30
0
11
1.297172
21
50.48948
31
0
0
LINE
8
seepage_UP_1X_0
10
2.43068
20
54.564242
30
0
11
2.251968
21
54.459294
31
0
0
LINE
8
seepage_UP_1X_0
10
2.251968
20
54.459294
30
0
11
2.094028
21
54.325102
31
0
0
LINE
8
seepage_UP_1X_0
10
2.094028
20
54.325102
30
0
11
1.961596
21
54.165686
31
0
0
LINE
8
seepage_UP_1X_0
10
1.961596
20
54.165686
30
0
11
1.858634
21
53.985822
31
0
0
LINE
8
seepage_UP_1X_0
10
1.858634
20
53.985822
30
0
11
1.78823
21
53.790898
31
0
0
LINE
8
seepage_UP_1X_0
10
1.78823
20
53.790898
30
0
11
1.752494
21
53.586754
31
0
0
LINE
8
seepage_UP_1X_0
10
1.752494
20
53.586754
30
0
11
1.752494
21
53.379506
31
0
0
LINE
8
seepage_UP_1X_0
10
1.752494
20
53.379506
30
0
11
1.78823
21
53.175362
31
0
0
LINE
8
seepage_UP_1X_0
10
1.78823
20
53.175362
30
0
11
1.858634
21
52.980438
31
0
0
LINE
8
seepage_UP_1X_0
10
1.858634
20
52.980438
30
0
11
1.961596
21
52.800574
31
0
0
LINE
8
seepage_UP_1X_0
10
1.961596
20
52.800574
30
0
11
2.094028
21
52.641158
31
0
0
LINE
8
seepage_UP_1X_0
10
2.094028
20
52.641158
30
0
11
2.251968
21
52.506966
31
0
0
LINE
8
seepage_UP_1X_0
10
2.251968
20
52.506966
30
0
11
2.43068
21
52.402018
31
0
0
LINE
8
seepage_UP_1X_0
10
2.43068
20
52.402018
30
0
11
2.265988
21
52.318204
31
0
0
LINE
8
seepage_UP_1X_0
10
2.265988
20
52.318204
30
0
11
2.117224
21
52.208582
31
0
0
LINE
8
seepage_UP_1X_0
10
2.117224
20
52.208582
30
0
11
1.988392
21
52.076102
31
0
0
LINE
8
seepage_UP_1X_0
10
1.988392
20
52.076102
30
0
11
1.882966
21
51.924334
31
0
0
LINE
8
seepage_UP_1X_0
10
1.882966
20
51.924334
30
0
11
1.803782
21
51.757368
31
0
0
LINE
8
seepage_UP_1X_0
10
1.803782
20
51.757368
30
0
11
1.752976
21
51.579696
31
0
0
LINE
8
seepage_UP_1X_0
10
1.752976
20
51.579696
30
0
11
1.731914
21
51.396108
31
0
0
LINE
8
seepage_UP_1X_0
10
1.731914
20
51.396108
30
0
11
1.741164
21
51.211548
31
0
0
LINE
8
seepage_UP_1X_0
10
1.741164
20
51.211548
30
0
11
1.780478
21
51.030986
31
0
0
LINE
8
seepage_UP_1X_0
10
1.780478
20
51.030986
30
0
11
1.848796
21
50.859286
31
0
0
LINE
8
seepage_UP_1X_0
10
1.848796
20
50.859286
30
0
11
1.944278
21
50.701074
31
0
0
LINE
8
seepage_UP_1X_0
10
1.944278
20
50.701074
30
0
11
2.064352
21
50.560608
31
0
0
LINE
8
seepage_UP_1X_0
10
2.064352
20
50.560608
30
0
11
2.205784
21
50.441676
31
0
0
LINE
8
seepage_UP_1X_0
10
2.205784
20
50.441676
30
0
11
2.364764
21
50.347478
31
0
0
LINE
8
seepage_UP_1X_0
10
2.364764
20
50.347478
30
0
11
2.537012
21
50.280552
31
0
0
LINE
8
seepage_UP_1X_0
10
2.537012
20
50.280552
30
0
11
2.717886
21
50.2427
31
0
0
LINE
8
seepage_UP_1X_0
10
0
20
47.713214
30
0
11
0.139524
21
47.618422
31
0
0
LINE
8
seepage_UP_1X_0
10
0.139524
20
47.618422
30
0
11
0.293174
21
47.548824
31
0
0
LINE
8
seepage_UP_1X_0
10
0.293174
20
47.548824
30
0
11
0.456446
21
47.50646
31
0
0
LINE
8
seepage_UP_1X_0
10
0.456446
20
47.50646
30
0
11
0.624552
21
47.492574
31
0
0
LINE
8
seepage_UP_1X_0
10
0.624552
20
47.492574
30
0
11
0.792562
21
47.507574
31
0
0
LINE
8
seepage_UP_1X_0
10
0.792562
20
47.507574
30
0
11
0.95555
21
47.551018
31
0
0
LINE
8
seepage_UP_1X_0
10
0.95555
20
47.551018
30
0
11
1.108736
21
47.621634
31
0
0
LINE
8
seepage_UP_1X_0
10
1.108736
20
47.621634
30
0
11
1.247628
21
47.717348
31
0
0
LINE
8
seepage_UP_1X_0
10
1.247628
20
47.717348
30
0
11
1.368154
21
47.835356
31
0
0
LINE
8
seepage_UP_1X_0
10
1.368154
20
47.835356
30
0
11
1.466778
21
47.972198
31
0
0
LINE
8
seepage_UP_1X_0
10
1.466778
20
47.972198
30
0
11
1.54061
21
48.12386
31
0
0
LINE
8
seepage_UP_1X_0
10
1.54061
20
48.12386
30
0
11
1.587482
21
48.285896
31
0
0
LINE
8
seepage_UP_1X_0
10
1.587482
20
48.285896
30
0
11
1.606024
21
48.453552
31
0
0
LINE
8
seepage_UP_1X_0
10
0
20
47.713214
30
0
11
0.112504
21
47.773076
31
0
0
LINE
8
seepage_UP_1X_0
10
0.112504
20
47.773076
30
0
11
0.217464
21
47.845358
31
0
0
LINE
8
seepage_UP_1X_0
10
0.217464
20
47.845358
30
0
11
0.31351
21
47.929118
31
0
0
LINE
8
seepage_UP_1X_0
10
0.31351
20
47.929118
30
0
11
0.399398
21
48.023268
31
0
0
LINE
8
seepage_UP_1X_0
10
0.399398
20
48.023268
30
0
11
0.47401
21
48.126582
31
0
0
LINE
8
seepage_UP_1X_0
10
0.47401
20
48.126582
30
0
11
0.536374
21
48.23772
31
0
0
LINE
8
seepage_UP_1X_0
10
0.536374
20
48.23772
30
0
11
0.58568
21
48.355234
31
0
0
LINE
8
seepage_UP_1X_0
10
0.58568
20
48.355234
30
0
11
0.621288
21
48.477598
31
0
0
LINE
8
seepage_UP_1X_0
10
1.606024
20
48.453552
30
0
11
1.496782
21
48.528198
31
0
0
LINE
8
seepage_UP_1X_0
10
1.496782
20
48.528198
30
0
11
1.376802
21
48.583972
31
0
0
LINE
8
seepage_UP_1X_0
10
1.376802
20
48.583972
30
0
11
1.249314
21
48.619372
31
0
0
LINE
8
seepage_UP_1X_0
10
1.249314
20
48.619372
30
0
11
1.117756
21
48.633444
31
0
0
LINE
8
seepage_UP_1X_0
10
1.117756
20
48.633444
30
0
11
0.985666
21
48.62581
31
0
0
LINE
8
seepage_UP_1X_0
10
0.985666
20
48.62581
30
0
11
0.856602
21
48.596676
31
0
0
LINE
8
seepage_UP_1X_0
10
0.856602
20
48.596676
30
0
11
0.734044
21
48.546824
31
0
0
LINE
8
seepage_UP_1X_0
10
0.734044
20
48.546824
30
0
11
0.621288
21
48.477598
31
0
0
LINE
8
seepage_ORIGINAL_0
10
39.494951
20
52.136249
30
0
11
39.333133
21
52.234709
31
0
0
LINE
8
seepage_ORIGINAL_0
10
39.333133
20
52.234709
30
0
11
39.156899
21
52.304143
31
0
0
LINE
8
seepage_ORIGINAL_0
10
39.156899
20
52.304143
30
0
11
38.971409
21
52.342517
31
0
0
LINE
8
seepage_ORIGINAL_0
10
38.971409
20
52.342517
30
0
11
38.782092
21
52.348709
31
0
0
LINE
8
seepage_ORIGINAL_0
10
38.782092
20
52.348709
30
0
11
38.59449
21
52.322537
31
0
0
LINE
8
seepage_ORIGINAL_0
10
38.59449
20
52.322537
30
0
11
38.414096
21
52.264767
31
0
0
LINE
8
seepage_ORIGINAL_0
10
38.414096
20
52.264767
30
0
11
38.246191
21
52.17709
31
0
0
LINE
8
seepage_ORIGINAL_0
10
38.246191
20
52.17709
30
0
11
38.095689
21
52.062074
31
0
0
LINE
8
seepage_ORIGINAL_0
10
38.095689
20
52.062074
30
0
11
37.966998
21
51.923085
31
0
0
LINE
8
seepage_ORIGINAL_0
10
37.966998
20
51.923085
30
0
11
37.863885
21
51.764192
31
0
0
LINE
8
seepage_ORIGINAL_0
10
37.863885
20
51.764192
30
0
11
37.789367
21
51.590047
31
0
0
LINE
8
seepage_ORIGINAL_0
10
37.789367
20
51.590047
30
0
11
37.745627
21
51.405748
31
0
0
LINE
8
seepage_ORIGINAL_0
10
37.745627
20
51.405748
30
0
11
37.733945
21
51.21669
31
0
0
LINE
8
seepage_ORIGINAL_0
10
37.733945
20
51.21669
30
0
11
37.754664
21
51.028408
31
0
0
LINE
8
seepage_ORIGINAL_0
10
40.338187
20
52.754409
30
0
11
40.276824
21
52.817796
31
0
0
LINE
8
seepage_ORIGINAL_0
10
40.276824
20
52.817796
30
0
11
40.205688
21
52.869978
31
0
0
LINE
8
seepage_ORIGINAL_0
10
40.205688
20
52.869978
30
0
11
40.126799
21
52.909473
31
0
0
LINE
8
seepage_ORIGINAL_0
10
40.126799
20
52.909473
30
0
11
40.042398
21
52.935159
31
0
0
LINE
8
seepage_ORIGINAL_0
10
40.042398
20
52.935159
30
0
11
39.954882
21
52.946307
31
0
0
LINE
8
seepage_ORIGINAL_0
10
39.954882
20
52.946307
30
0
11
39.866736
21
52.9426
31
0
0
LINE
8
seepage_ORIGINAL_0
10
39.866736
20
52.9426
30
0
11
39.780465
21
52.924143
31
0
0
LINE
8
seepage_ORIGINAL_0
10
39.780465
20
52.924143
30
0
11
39.698519
21
52.891461
31
0
0
LINE
8
seepage_ORIGINAL_0
10
39.698519
20
52.891461
30
0
11
39.623224
21
52.845482
31
0
0
LINE
8
seepage_ORIGINAL_0
10
39.623224
20
52.845482
30
0
11
39.556721
21
52.787512
31
0
0
LINE
8
seepage_ORIGINAL_0
10
39.556721
20
52.787512
30
0
11
39.500896
21
52.719197
31
0
0
LINE
8
seepage_ORIGINAL_0
10
39.500896
20
52.719197
30
0
11
39.457337
21
52.642477
31
0
0
LINE
8
seepage_ORIGINAL_0
10
39.457337
20
52.642477
30
0
11
39.427279
21
52.559532
31
0
0
LINE
8
seepage_ORIGINAL_0
10
39.427279
20
52.559532
30
0
11
39.411578
21
52.472717
31
0
0
LINE
8
seepage_ORIGINAL_0
10
39.411578
20
52.472717
30
0
11
39.410678
21
52.384499
31
0
0
LINE
8
seepage_ORIGINAL_0
10
39.410678
20
52.384499
30
0
11
39.424606
21
52.297382
31
0
0
LINE
8
seepage_ORIGINAL_0
10
39.424606
20
52.297382
30
0
11
39.452965
21
52.213841
31
0
0
LINE
8
seepage_ORIGINAL_0
10
39.452965
20
52.213841
30
0
11
39.494951
21
52.136249
31
0
0
LINE
8
seepage_ORIGINAL_0
10
42.067752
20
52.754409
30
0
11
41.869853
21
52.87173
31
0
0
LINE
8
seepage_ORIGINAL_0
10
41.869853
20
52.87173
30
0
11
41.656395
21
52.957542
31
0
0
LINE
8
seepage_ORIGINAL_0
10
41.656395
20
52.957542
30
0
11
41.432358
21
53.009843
31
0
0
LINE
8
seepage_ORIGINAL_0
10
41.432358
20
53.009843
30
0
11
41.20297
21
53.027413
31
0
0
LINE
8
seepage_ORIGINAL_0
10
41.20297
20
53.027413
30
0
11
40.973581
21
53.009843
31
0
0
LINE
8
seepage_ORIGINAL_0
10
40.973581
20
53.009843
30
0
11
40.749544
21
52.957542
31
0
0
LINE
8
seepage_ORIGINAL_0
10
40.749544
20
52.957542
30
0
11
40.536086
21
52.87173
31
0
0
LINE
8
seepage_ORIGINAL_0
10
40.536086
20
52.87173
30
0
11
40.338187
21
52.754409
31
0
0
LINE
8
seepage_ORIGINAL_0
10
43.39581
20
52.754409
30
0
11
43.266516
21
52.850034
31
0
0
LINE
8
seepage_ORIGINAL_0
10
43.266516
20
52.850034
30
0
11
43.123698
21
52.923953
31
0
0
LINE
8
seepage_ORIGINAL_0
10
43.123698
20
52.923953
30
0
11
42.970967
21
52.974295
31
0
0
LINE
8
seepage_ORIGINAL_0
10
42.970967
20
52.974295
30
0
11
42.812187
21
52.999789
31
0
0
LINE
8
seepage_ORIGINAL_0
10
42.812187
20
52.999789
30
0
11
42.651374
21
52.999789
31
0
0
LINE
8
seepage_ORIGINAL_0
10
42.651374
20
52.999789
30
0
11
42.492594
21
52.974295
31
0
0
LINE
8
seepage_ORIGINAL_0
10
42.492594
20
52.974295
30
0
11
42.339864
21
52.923953
31
0
0
LINE
8
seepage_ORIGINAL_0
10
42.339864
20
52.923953
30
0
11
42.197045
21
52.850034
31
0
0
LINE
8
seepage_ORIGINAL_0
10
42.197045
20
52.850034
30
0
11
42.067752
21
52.754409
31
0
0
LINE
8
seepage_ORIGINAL_0
10
44.260592
20
51.983224
30
0
11
44.175638
21
52.102453
31
0
0
LINE
8
seepage_ORIGINAL_0
10
44.175638
20
52.102453
30
0
11
44.083251
21
52.216018
31
0
0
LINE
8
seepage_ORIGINAL_0
10
44.083251
20
52.216018
30
0
11
43.983805
21
52.323457
31
0
0
LINE
8
seepage_ORIGINAL_0
10
43.983805
20
52.323457
30
0
11
43.877708
21
52.424333
31
0
0
LINE
8
seepage_ORIGINAL_0
10
43.877708
20
52.424333
30
0
11
43.76539
21
52.518233
31
0
0
LINE
8
seepage_ORIGINAL_0
10
43.76539
20
52.518233
30
0
11
43.64731
21
52.604776
31
0
0
LINE
8
seepage_ORIGINAL_0
10
43.64731
20
52.604776
30
0
11
43.523949
21
52.683608
31
0
0
LINE
8
seepage_ORIGINAL_0
10
43.523949
20
52.683608
30
0
11
43.39581
21
52.754409
31
0
0
LINE
8
seepage_ORIGINAL_0
10
44.623981
20
51.020202
30
0
11
44.689155
21
51.088998
31
0
0
LINE
8
seepage_ORIGINAL_0
10
44.689155
20
51.088998
30
0
11
44.741578
21
51.167943
31
0
0
LINE
8
seepage_ORIGINAL_0
10
44.741578
20
51.167943
30
0
11
44.779699
21
51.254702
31
0
0
LINE
8
seepage_ORIGINAL_0
10
44.779699
20
51.254702
30
0
11
44.802393
21
51.34671
31
0
0
LINE
8
seepage_ORIGINAL_0
10
44.802393
20
51.34671
30
0
11
44.808986
21
51.441245
31
0
0
LINE
8
seepage_ORIGINAL_0
10
44.808986
20
51.441245
30
0
11
44.799286
21
51.535512
31
0
0
LINE
8
seepage_ORIGINAL_0
10
44.799286
20
51.535512
30
0
11
44.773577
21
51.626723
31
0
0
LINE
8
seepage_ORIGINAL_0
10
44.773577
20
51.626723
30
0
11
44.732621
21
51.712181
31
0
0
LINE
8
seepage_ORIGINAL_0
10
44.732621
20
51.712181
30
0
11
44.677629
21
51.789358
31
0
0
LINE
8
seepage_ORIGINAL_0
10
44.677629
20
51.789358
30
0
11
44.610226
21
51.855972
31
0
0
LINE
8
seepage_ORIGINAL_0
10
44.610226
20
51.855972
30
0
11
44.532408
21
51.910052
31
0
0
LINE
8
seepage_ORIGINAL_0
10
44.532408
20
51.910052
30
0
11
44.446474
21
51.95
31
0
0
LINE
8
seepage_ORIGINAL_0
10
44.446474
20
51.95
30
0
11
44.354967
21
51.974633
31
0
0
LINE
8
seepage_ORIGINAL_0
10
44.354967
20
51.974633
30
0
11
44.260592
21
51.983224
31
0
0
LINE
8
seepage_ORIGINAL_0
10
43.45758
20
50.101533
30
0
11
43.554536
21
50.015475
31
0
0
LINE
8
seepage_ORIGINAL_0
10
43.554536
20
50.015475
30
0
11
43.664936
21
49.947517
31
0
0
LINE
8
seepage_ORIGINAL_0
10
43.664936
20
49.947517
30
0
11
43.78544
21
49.899713
31
0
0
LINE
8
seepage_ORIGINAL_0
10
43.78544
20
49.899713
30
0
11
43.912404
21
49.873511
31
0
0
LINE
8
seepage_ORIGINAL_0
10
43.912404
20
49.873511
30
0
11
44.041988
21
49.869701
31
0
0
LINE
8
seepage_ORIGINAL_0
10
44.041988
20
49.869701
30
0
11
44.170272
21
49.8884
31
0
0
LINE
8
seepage_ORIGINAL_0
10
44.170272
20
49.8884
30
0
11
44.293376
21
49.929042
31
0
0
LINE
8
seepage_ORIGINAL_0
10
44.293376
20
49.929042
30
0
11
44.407578
21
49.990398
31
0
0
LINE
8
seepage_ORIGINAL_0
10
44.407578
20
49.990398
30
0
11
44.509422
21
50.070611
31
0
0
LINE
8
seepage_ORIGINAL_0
10
44.509422
20
50.070611
30
0
11
44.595829
21
50.167256
31
0
0
LINE
8
seepage_ORIGINAL_0
10
44.595829
20
50.167256
30
0
11
44.664185
21
50.277411
31
0
0
LINE
8
seepage_ORIGINAL_0
10
44.664185
20
50.277411
30
0
11
44.712422
21
50.397742
31
0
0
LINE
8
seepage_ORIGINAL_0
10
44.712422
20
50.397742
30
0
11
44.739083
21
50.524611
31
0
0
LINE
8
seepage_ORIGINAL_0
10
44.739083
20
50.524611
30
0
11
44.743359
21
50.65418
31
0
0
LINE
8
seepage_ORIGINAL_0
10
44.743359
20
50.65418
30
0
11
44.725123
21
50.78253
31
0
0
LINE
8
seepage_ORIGINAL_0
10
44.725123
20
50.78253
30
0
11
44.684925
21
50.905781
31
0
0
LINE
8
seepage_ORIGINAL_0
10
44.684925
20
50.905781
30
0
11
44.623981
21
51.020202
31
0
0
LINE
8
seepage_ORIGINAL_0
10
42.345717
20
49.577127
30
0
11
42.419095
21
49.503228
31
0
0
LINE
8
seepage_ORIGINAL_0
10
42.419095
20
49.503228
30
0
11
42.50355
21
49.442297
31
0
0
LINE
8
seepage_ORIGINAL_0
10
42.50355
20
49.442297
30
0
11
42.596818
21
49.395967
31
0
0
LINE
8
seepage_ORIGINAL_0
10
42.596818
20
49.395967
30
0
11
42.696397
21
49.365482
31
0
0
LINE
8
seepage_ORIGINAL_0
10
42.696397
20
49.365482
30
0
11
42.799617
21
49.351659
31
0
0
LINE
8
seepage_ORIGINAL_0
10
42.799617
20
49.351659
30
0
11
42.903708
21
49.354869
31
0
0
LINE
8
seepage_ORIGINAL_0
10
42.903708
20
49.354869
30
0
11
43.00588
21
49.375025
31
0
0
LINE
8
seepage_ORIGINAL_0
10
43.00588
20
49.375025
30
0
11
43.103392
21
49.411588
31
0
0
LINE
8
seepage_ORIGINAL_0
10
43.103392
20
49.411588
30
0
11
43.193628
21
49.463576
31
0
0
LINE
8
seepage_ORIGINAL_0
10
43.193628
20
49.463576
30
0
11
43.274169
21
49.529595
31
0
0
LINE
8
seepage_ORIGINAL_0
10
43.274169
20
49.529595
30
0
11
43.342854
21
49.607875
31
0
0
LINE
8
seepage_ORIGINAL_0
10
43.342854
20
49.607875
30
0
11
43.397841
21
49.696315
31
0
0
LINE
8
seepage_ORIGINAL_0
10
43.397841
20
49.696315
30
0
11
43.437656
21
49.792545
31
0
0
LINE
8
seepage_ORIGINAL_0
10
43.437656
20
49.792545
30
0
11
43.46123
21
49.893983
31
0
0
LINE
8
seepage_ORIGINAL_0
10
43.46123
20
49.893983
30
0
11
43.467931
21
49.997908
31
0
0
LINE
8
seepage_ORIGINAL_0
10
43.467931
20
49.997908
30
0
11
43.45758
21
50.101533
31
0
0
LINE
8
seepage_ORIGINAL_0
10
41.38828
20
49.052722
30
0
11
41.47872
21
49.004907
31
0
0
LINE
8
seepage_ORIGINAL_0
10
41.47872
20
49.004907
30
0
11
41.575772
21
48.972555
31
0
0
LINE
8
seepage_ORIGINAL_0
10
41.575772
20
48.972555
30
0
11
41.676812
21
48.956541
31
0
0
LINE
8
seepage_ORIGINAL_0
10
41.676812
20
48.956541
30
0
11
41.779111
21
48.957295
31
0
0
LINE
8
seepage_ORIGINAL_0
10
41.779111
20
48.957295
30
0
11
41.879904
21
48.9748
31
0
0
LINE
8
seepage_ORIGINAL_0
10
41.879904
20
48.9748
30
0
11
41.976468
21
49.00858
31
0
0
LINE
8
seepage_ORIGINAL_0
10
41.976468
20
49.00858
30
0
11
42.066193
21
49.057724
31
0
0
LINE
8
seepage_ORIGINAL_0
10
42.066193
20
49.057724
30
0
11
42.146654
21
49.120903
31
0
0
LINE
8
seepage_ORIGINAL_0
10
42.146654
20
49.120903
30
0
11
42.215678
21
49.196411
31
0
0
LINE
8
seepage_ORIGINAL_0
10
42.215678
20
49.196411
30
0
11
42.271399
21
49.282206
31
0
0
LINE
8
seepage_ORIGINAL_0
10
42.271399
20
49.282206
30
0
11
42.312311
21
49.375971
31
0
0
LINE
8
seepage_ORIGINAL_0
10
42.312311
20
49.375971
30
0
11
42.337309
21
49.475172
31
0
0
LINE
8
seepage_ORIGINAL_0
10
42.337309
20
49.475172
30
0
11
42.345717
21
49.577127
31
0
0
LINE
8
seepage_ORIGINAL_0
10
40.801464
20
49.793059
30
0
11
40.774606
21
49.709005
31
0
0
LINE
8
seepage_ORIGINAL_0
10
40.774606
20
49.709005
30
0
11
40.761767
21
49.621704
31
0
0
LINE
8
seepage_ORIGINAL_0
10
40.761767
20
49.621704
30
0
11
40.763287
21
49.533477
31
0
0
LINE
8
seepage_ORIGINAL_0
10
40.763287
20
49.533477
30
0
11
40.779126
21
49.446669
31
0
0
LINE
8
seepage_ORIGINAL_0
10
40.779126
20
49.446669
30
0
11
40.808863
21
49.36359
31
0
0
LINE
8
seepage_ORIGINAL_0
10
40.808863
20
49.36359
30
0
11
40.851708
21
49.286449
31
0
0
LINE
8
seepage_ORIGINAL_0
10
40.851708
20
49.286449
30
0
11
40.90652
21
49.217297
31
0
0
LINE
8
seepage_ORIGINAL_0
10
40.90652
20
49.217297
30
0
11
40.971842
21
49.157973
31
0
0
LINE
8
seepage_ORIGINAL_0
10
40.971842
20
49.157973
30
0
11
41.045938
21
49.110055
31
0
0
LINE
8
seepage_ORIGINAL_0
10
41.045938
20
49.110055
30
0
11
41.126837
21
49.074816
31
0
0
LINE
8
seepage_ORIGINAL_0
10
41.126837
20
49.074816
30
0
11
41.212387
21
49.053193
31
0
0
LINE
8
seepage_ORIGINAL_0
10
41.212387
20
49.053193
30
0
11
41.300314
21
49.045763
31
0
0
LINE
8
seepage_ORIGINAL_0
10
41.300314
20
49.045763
30
0
11
41.38828
21
49.052722
31
0
0
LINE
8
seepage_ORIGINAL_0
10
39.535176
20
48.867637
30
0
11
39.71112
21
48.842363
31
0
0
LINE
8
seepage_ORIGINAL_0
10
39.71112
20
48.842363
30
0
11
39.888794
21
48.847566
31
0
0
LINE
8
seepage_ORIGINAL_0
10
39.888794
20
48.847566
30
0
11
40.062958
21
48.883094
31
0
0
LINE
8
seepage_ORIGINAL_0
10
40.062958
20
48.883094
30
0
11
40.228474
21
48.947898
31
0
0
LINE
8
seepage_ORIGINAL_0
10
40.228474
20
48.947898
30
0
11
40.380462
21
49.040067
31
0
0
LINE
8
seepage_ORIGINAL_0
10
40.380462
20
49.040067
30
0
11
40.514436
21
49.156883
31
0
0
LINE
8
seepage_ORIGINAL_0
10
40.514436
20
49.156883
30
0
11
40.626448
21
49.2949
31
0
0
LINE
8
seepage_ORIGINAL_0
10
40.626448
20
49.2949
30
0
11
40.713192
21
49.450047
31
0
0
LINE
8
seepage_ORIGINAL_0
10
40.713192
20
49.450047
30
0
11
40.772109
21
49.617749
31
0
0
LINE
8
seepage_ORIGINAL_0
10
40.772109
20
49.617749
30
0
11
40.801464
21
49.793059
31
0
0
LINE
8
seepage_ORIGINAL_0
10
37.898267
20
48.867637
30
0
11
38.032088
21
48.740329
31
0
0
LINE
8
seepage_ORIGINAL_0
10
38.032088
20
48.740329
30
0
11
38.185413
21
48.637342
31
0
0
LINE
8
seepage_ORIGINAL_0
10
38.185413
20
48.637342
30
0
11
38.353877
21
48.561609
31
0
0
LINE
8
seepage_ORIGINAL_0
10
38.353877
20
48.561609
30
0
11
38.532677
21
48.515289
31
0
0
LINE
8
seepage_ORIGINAL_0
10
38.532677
20
48.515289
30
0
11
38.716721
21
48.499701
31
0
0
LINE
8
seepage_ORIGINAL_0
10
38.716721
20
48.499701
30
0
11
38.900766
21
48.515289
31
0
0
LINE
8
seepage_ORIGINAL_0
10
38.900766
20
48.515289
30
0
11
39.079566
21
48.561609
31
0
0
LINE
8
seepage_ORIGINAL_0
10
39.079566
20
48.561609
30
0
11
39.248029
21
48.637342
31
0
0
LINE
8
seepage_ORIGINAL_0
10
39.248029
20
48.637342
30
0
11
39.401355
21
48.740329
31
0
0
LINE
8
seepage_ORIGINAL_0
10
39.401355
20
48.740329
30
0
11
39.535176
21
48.867637
31
0
0
LINE
8
seepage_ORIGINAL_0
10
37.342336
20
47.973063
30
0
11
37.435232
21
47.953915
31
0
0
LINE
8
seepage_ORIGINAL_0
10
37.435232
20
47.953915
30
0
11
37.53004
21
47.95114
31
0
0
LINE
8
seepage_ORIGINAL_0
10
37.53004
20
47.95114
30
0
11
37.623897
21
47.96482
31
0
0
LINE
8
seepage_ORIGINAL_0
10
37.623897
20
47.96482
30
0
11
37.713968
21
47.994543
31
0
0
LINE
8
seepage_ORIGINAL_0
10
37.713968
20
47.994543
30
0
11
37.797533
21
48.039411
31
0
0
LINE
8
seepage_ORIGINAL_0
10
37.797533
20
48.039411
30
0
11
37.872069
21
48.098068
31
0
0
LINE
8
seepage_ORIGINAL_0
10
37.872069
20
48.098068
30
0
11
37.935324
21
48.168744
31
0
0
LINE
8
seepage_ORIGINAL_0
10
37.935324
20
48.168744
30
0
11
37.985387
21
48.249304
31
0
0
LINE
8
seepage_ORIGINAL_0
10
37.985387
20
48.249304
30
0
11
38.020748
21
48.337315
31
0
0
LINE
8
seepage_ORIGINAL_0
10
38.020748
20
48.337315
30
0
11
38.040338
21
48.430119
31
0
0
LINE
8
seepage_ORIGINAL_0
10
38.040338
20
48.430119
30
0
11
38.043565
21
48.524912
31
0
0
LINE
8
seepage_ORIGINAL_0
10
38.043565
20
48.524912
30
0
11
38.030332
21
48.618833
31
0
0
LINE
8
seepage_ORIGINAL_0
10
38.030332
20
48.618833
30
0
11
38.001038
21
48.709045
31
0
0
LINE
8
seepage_ORIGINAL_0
10
38.001038
20
48.709045
30
0
11
37.956569
21
48.792823
31
0
0
LINE
8
seepage_ORIGINAL_0
10
37.956569
20
48.792823
30
0
11
37.898267
21
48.867637
31
0
0
LINE
8
seepage_ORIGINAL_0
10
37.18791
20
48.991027
30
0
11
37.138298
21
48.863808
31
0
0
LINE
8
seepage_ORIGINAL_0
10
37.138298
20
48.863808
30
0
11
37.108155
21
48.730627
31
0
0
LINE
8
seepage_ORIGINAL_0
10
37.108155
20
48.730627
30
0
11
37.098152
21
48.594443
31
0
0
LINE
8
seepage_ORIGINAL_0
10
37.098152
20
48.594443
30
0
11
37.108509
21
48.458287
31
0
0
LINE
8
seepage_ORIGINAL_0
10
37.108509
20
48.458287
30
0
11
37.138998
21
48.325184
31
0
0
LINE
8
seepage_ORIGINAL_0
10
37.138998
20
48.325184
30
0
11
37.188941
21
48.198094
31
0
0
LINE
8
seepage_ORIGINAL_0
10
37.188941
20
48.198094
30
0
11
37.257226
21
48.079844
31
0
0
LINE
8
seepage_ORIGINAL_0
10
37.257226
20
48.079844
30
0
11
37.342336
21
47.973063
31
0
0
LINE
8
seepage_ORIGINAL_0
10
37.898267
20
48.867637
30
0
11
37.828432
21
48.935647
31
0
0
LINE
8
seepage_ORIGINAL_0
10
37.828432
20
48.935647
30
0
11
37.748016
21
48.990743
31
0
0
LINE
8
seepage_ORIGINAL_0
10
37.748016
20
48.990743
30
0
11
37.659378
21
49.031309
31
0
0
LINE
8
seepage_ORIGINAL_0
10
37.659378
20
49.031309
30
0
11
37.565118
21
49.056155
31
0
0
LINE
8
seepage_ORIGINAL_0
10
37.565118
20
49.056155
30
0
11
37.468001
21
49.064551
31
0
0
LINE
8
seepage_ORIGINAL_0
10
37.468001
20
49.064551
30
0
11
37.370875
21
49.056253
31
0
0
LINE
8
seepage_ORIGINAL_0
10
37.370875
20
49.056253
30
0
11
37.276589
21
49.031503
31
0
0
LINE
8
seepage_ORIGINAL_0
10
37.276589
20
49.031503
30
0
11
37.18791
21
48.991027
31
0
0
LINE
8
seepage_ORIGINAL_0
10
37.754664
20
51.028408
30
0
11
37.665308
21
50.975934
31
0
0
LINE
8
seepage_ORIGINAL_0
10
37.665308
20
50.975934
30
0
11
37.586338
21
50.908838
31
0
0
LINE
8
seepage_ORIGINAL_0
10
37.586338
20
50.908838
30
0
11
37.520122
21
50.82913
31
0
0
LINE
8
seepage_ORIGINAL_0
10
37.520122
20
50.82913
30
0
11
37.468641
21
50.739198
31
0
0
LINE
8
seepage_ORIGINAL_0
10
37.468641
20
50.739198
30
0
11
37.433439
21
50.641736
31
0
0
LINE
8
seepage_ORIGINAL_0
10
37.433439
20
50.641736
30
0
11
37.415571
21
50.539664
31
0
0
LINE
8
seepage_ORIGINAL_0
10
37.415571
20
50.539664
30
0
11
37.415571
21
50.43604
31
0
0
LINE
8
seepage_ORIGINAL_0
10
37.415571
20
50.43604
30
0
11
37.433439
21
50.333968
31
0
0
LINE
8
seepage_ORIGINAL_0
10
37.433439
20
50.333968
30
0
11
37.468641
21
50.236506
31
0
0
LINE
8
seepage_ORIGINAL_0
10
37.468641
20
50.236506
30
0
11
37.520122
21
50.146574
31
0
0
LINE
8
seepage_ORIGINAL_0
10
37.520122
20
50.146574
30
0
11
37.586338
21
50.066866
31
0
0
LINE
8
seepage_ORIGINAL_0
10
37.586338
20
50.066866
30
0
11
37.665308
21
49.99977
31
0
0
LINE
8
seepage_ORIGINAL_0
10
37.665308
20
49.99977
30
0
11
37.754664
21
49.947296
31
0
0
LINE
8
seepage_ORIGINAL_0
10
37.754664
20
49.947296
30
0
11
37.672318
21
49.905389
31
0
0
LINE
8
seepage_ORIGINAL_0
10
37.672318
20
49.905389
30
0
11
37.597936
21
49.850578
31
0
0
LINE
8
seepage_ORIGINAL_0
10
37.597936
20
49.850578
30
0
11
37.53352
21
49.784338
31
0
0
LINE
8
seepage_ORIGINAL_0
10
37.53352
20
49.784338
30
0
11
37.480807
21
49.708454
31
0
0
LINE
8
seepage_ORIGINAL_0
10
37.480807
20
49.708454
30
0
11
37.441215
21
49.624971
31
0
0
LINE
8
seepage_ORIGINAL_0
10
37.441215
20
49.624971
30
0
11
37.415812
21
49.536135
31
0
0
LINE
8
seepage_ORIGINAL_0
10
37.415812
20
49.536135
30
0
11
37.405281
21
49.444341
31
0
0
LINE
8
seepage_ORIGINAL_0
10
37.405281
20
49.444341
30
0
11
37.409906
21
49.352061
31
0
0
LINE
8
seepage_ORIGINAL_0
10
37.409906
20
49.352061
30
0
11
37.429563
21
49.26178
31
0
0
LINE
8
seepage_ORIGINAL_0
10
37.429563
20
49.26178
30
0
11
37.463722
21
49.17593
31
0
0
LINE
8
seepage_ORIGINAL_0
10
37.463722
20
49.17593
30
0
11
37.511463
21
49.096824
31
0
0
LINE
8
seepage_ORIGINAL_0
10
37.511463
20
49.096824
30
0
11
37.5715
21
49.026591
31
0
0
LINE
8
seepage_ORIGINAL_0
10
37.5715
20
49.026591
30
0
11
37.642216
21
48.967125
31
0
0
LINE
8
seepage_ORIGINAL_0
10
37.642216
20
48.967125
30
0
11
37.721706
21
48.920026
31
0
0
LINE
8
seepage_ORIGINAL_0
10
37.721706
20
48.920026
30
0
11
37.80783
21
48.886563
31
0
0
LINE
8
seepage_ORIGINAL_0
10
37.80783
20
48.886563
30
0
11
37.898267
21
48.867637
31
0
0
LINE
8
seepage_ORIGINAL_0
10
36.539324
20
47.602894
30
0
11
36.609086
21
47.555498
31
0
0
LINE
8
seepage_ORIGINAL_0
10
36.609086
20
47.555498
30
0
11
36.685911
21
47.520699
31
0
0
LINE
8
seepage_ORIGINAL_0
10
36.685911
20
47.520699
30
0
11
36.767547
21
47.499517
31
0
0
LINE
8
seepage_ORIGINAL_0
10
36.767547
20
47.499517
30
0
11
36.8516
21
47.492574
31
0
0
LINE
8
seepage_ORIGINAL_0
10
36.8516
20
47.492574
30
0
11
36.935605
21
47.500074
31
0
0
LINE
8
seepage_ORIGINAL_0
10
36.935605
20
47.500074
30
0
11
37.017099
21
47.521796
31
0
0
LINE
8
seepage_ORIGINAL_0
10
37.017099
20
47.521796
30
0
11
37.093692
21
47.557104
31
0
0
LINE
8
seepage_ORIGINAL_0
10
37.093692
20
47.557104
30
0
11
37.163138
21
47.604961
31
0
0
LINE
8
seepage_ORIGINAL_0
10
37.163138
20
47.604961
30
0
11
37.223401
21
47.663965
31
0
0
LINE
8
seepage_ORIGINAL_0
10
37.223401
20
47.663965
30
0
11
37.272713
21
47.732386
31
0
0
LINE
8
seepage_ORIGINAL_0
10
37.272713
20
47.732386
30
0
11
37.309629
21
47.808217
31
0
0
LINE
8
seepage_ORIGINAL_0
10
37.309629
20
47.808217
30
0
11
37.333065
21
47.889235
31
0
0
LINE
8
seepage_ORIGINAL_0
10
37.333065
20
47.889235
30
0
11
37.342336
21
47.973063
31
0
0
LINE
8
seepage_ORIGINAL_0
10
36.539324
20
47.602894
30
0
11
36.595576
21
47.632825
31
0
0
LINE
8
seepage_ORIGINAL_0
10
36.595576
20
47.632825
30
0
11
36.648056
21
47.668966
31
0
0
LINE
8
seepage_ORIGINAL_0
10
36.648056
20
47.668966
30
0
11
36.696079
21
47.710846
31
0
0
LINE
8
seepage_ORIGINAL_0
10
36.696079
20
47.710846
30
0
11
36.739023
21
47.757921
31
0
0
LINE
8
seepage_ORIGINAL_0
10
36.739023
20
47.757921
30
0
11
36.776329
21
47.809578
31
0
0
LINE
8
seepage_ORIGINAL_0
10
36.776329
20
47.809578
30
0
11
36.807511
21
47.865147
31
0
0
LINE
8
seepage_ORIGINAL_0
10
36.807511
20
47.865147
30
0
11
36.832164
21
47.923904
31
0
0
LINE
8
seepage_ORIGINAL_0
10
36.832164
20
47.923904
30
0
11
36.849968
21
47.985086
31
0
0
LINE
8
seepage_ORIGINAL_0
10
37.342336
20
47.973063
30
0
11
37.287715
21
48.010386
31
0
0
LINE
8
seepage_ORIGINAL_0
10
37.287715
20
48.010386
30
0
11
37.227725
21
48.038273
31
0
0
LINE
8
seepage_ORIGINAL_0
10
37.227725
20
48.038273
30
0
11
37.163981
21
48.055973
31
0
0
LINE
8
seepage_ORIGINAL_0
10
37.163981
20
48.055973
30
0
11
37.098202
21
48.063009
31
0
0
LINE
8
seepage_ORIGINAL_0
10
37.098202
20
48.063009
30
0
11
37.032157
21
48.059192
31
0
0
LINE
8
seepage_ORIGINAL_0
10
37.032157
20
48.059192
30
0
11
36.967625
21
48.044625
31
0
0
LINE
8
seepage_ORIGINAL_0
10
36.967625
20
48.044625
30
0
11
36.906346
21
48.019699
31
0
0
LINE
8
seepage_ORIGINAL_0
10
36.906346
20
48.019699
30
0
11
36.849968
21
47.985086
31
0
0
LINE
8
seepage_DOWN_1X_0
10
66.2868
20
49.814411
30
0
11
66.205891
21
49.863641
31
0
0
LINE
8
seepage_DOWN_1X_0
10
66.205891
20
49.863641
30
0
11
66.117773
21
49.898359
31
0
0
LINE
8
seepage_DOWN_1X_0
10
66.117773
20
49.898359
30
0
11
66.025029
21
49.917545
31
0
0
LINE
8
seepage_DOWN_1X_0
10
66.025029
20
49.917545
30
0
11
65.93037
21
49.920641
31
0
0
LINE
8
seepage_DOWN_1X_0
10
65.93037
20
49.920641
30
0
11
65.836569
21
49.907556
31
0
0
LINE
8
seepage_DOWN_1X_0
10
65.836569
20
49.907556
30
0
11
65.746372
21
49.87867
31
0
0
LINE
8
seepage_DOWN_1X_0
10
65.746372
20
49.87867
30
0
11
65.662419
21
49.834832
31
0
0
LINE
8
seepage_DOWN_1X_0
10
65.662419
20
49.834832
30
0
11
65.587169
21
49.777324
31
0
0
LINE
8
seepage_DOWN_1X_0
10
65.587169
20
49.777324
30
0
11
65.522823
21
49.707829
31
0
0
LINE
8
seepage_DOWN_1X_0
10
65.522823
20
49.707829
30
0
11
65.471266
21
49.628383
31
0
0
LINE
8
seepage_DOWN_1X_0
10
65.471266
20
49.628383
30
0
11
65.434008
21
49.54131
31
0
0
LINE
8
seepage_DOWN_1X_0
10
65.434008
20
49.54131
30
0
11
65.412138
21
49.449161
31
0
0
LINE
8
seepage_DOWN_1X_0
10
65.412138
20
49.449161
30
0
11
65.406297
21
49.354632
31
0
0
LINE
8
seepage_DOWN_1X_0
10
65.406297
20
49.354632
30
0
11
65.416656
21
49.260491
31
0
0
LINE
8
seepage_DOWN_1X_0
10
66.708418
20
50.123492
30
0
11
66.677736
21
50.155185
31
0
0
LINE
8
seepage_DOWN_1X_0
10
66.677736
20
50.155185
30
0
11
66.642168
21
50.181276
31
0
0
LINE
8
seepage_DOWN_1X_0
10
66.642168
20
50.181276
30
0
11
66.602724
21
50.201023
31
0
0
LINE
8
seepage_DOWN_1X_0
10
66.602724
20
50.201023
30
0
11
66.560523
21
50.213866
31
0
0
LINE
8
seepage_DOWN_1X_0
10
66.560523
20
50.213866
30
0
11
66.516765
21
50.21944
31
0
0
LINE
8
seepage_DOWN_1X_0
10
66.516765
20
50.21944
30
0
11
66.472692
21
50.217587
31
0
0
LINE
8
seepage_DOWN_1X_0
10
66.472692
20
50.217587
30
0
11
66.429557
21
50.208358
31
0
0
LINE
8
seepage_DOWN_1X_0
10
66.429557
20
50.208358
30
0
11
66.388584
21
50.192017
31
0
0
LINE
8
seepage_DOWN_1X_0
10
66.388584
20
50.192017
30
0
11
66.350936
21
50.169028
31
0
0
LINE
8
seepage_DOWN_1X_0
10
66.350936
20
50.169028
30
0
11
66.317684
21
50.140043
31
0
0
LINE
8
seepage_DOWN_1X_0
10
66.317684
20
50.140043
30
0
11
66.289772
21
50.105885
31
0
0
LINE
8
seepage_DOWN_1X_0
10
66.289772
20
50.105885
30
0
11
66.267993
21
50.067525
31
0
0
LINE
8
seepage_DOWN_1X_0
10
66.267993
20
50.067525
30
0
11
66.252964
21
50.026053
31
0
0
LINE
8
seepage_DOWN_1X_0
10
66.252964
20
50.026053
30
0
11
66.245113
21
49.982645
31
0
0
LINE
8
seepage_DOWN_1X_0
10
66.245113
20
49.982645
30
0
11
66.244663
21
49.938536
31
0
0
LINE
8
seepage_DOWN_1X_0
10
66.244663
20
49.938536
30
0
11
66.251627
21
49.894978
31
0
0
LINE
8
seepage_DOWN_1X_0
10
66.251627
20
49.894978
30
0
11
66.265807
21
49.853207
31
0
0
LINE
8
seepage_DOWN_1X_0
10
66.265807
20
49.853207
30
0
11
66.2868
21
49.814411
31
0
0
LINE
8
seepage_DOWN_1X_0
10
67.5732
20
50.123492
30
0
11
67.474251
21
50.182152
31
0
0
LINE
8
seepage_DOWN_1X_0
10
67.474251
20
50.182152
30
0
11
67.367522
21
50.225058
31
0
0
LINE
8
seepage_DOWN_1X_0
10
67.367522
20
50.225058
30
0
11
67.255503
21
50.251208
31
0
0
LINE
8
seepage_DOWN_1X_0
10
67.255503
20
50.251208
30
0
11
67.140809
21
50.259994
31
0
0
LINE
8
seepage_DOWN_1X_0
10
67.140809
20
50.259994
30
0
11
67.026115
21
50.251208
31
0
0
LINE
8
seepage_DOWN_1X_0
10
67.026115
20
50.251208
30
0
11
66.914096
21
50.225058
31
0
0
LINE
8
seepage_DOWN_1X_0
10
66.914096
20
50.225058
30
0
11
66.807367
21
50.182152
31
0
0
LINE
8
seepage_DOWN_1X_0
10
66.807367
20
50.182152
30
0
11
66.708418
21
50.123492
31
0
0
LINE
8
seepage_DOWN_1X_0
10
68.237229
20
50.123492
30
0
11
68.172582
21
50.171304
31
0
0
LINE
8
seepage_DOWN_1X_0
10
68.172582
20
50.171304
30
0
11
68.101173
21
50.208264
31
0
0
LINE
8
seepage_DOWN_1X_0
10
68.101173
20
50.208264
30
0
11
68.024808
21
50.233434
31
0
0
LINE
8
seepage_DOWN_1X_0
10
68.024808
20
50.233434
30
0
11
67.945418
21
50.246181
31
0
0
LINE
8
seepage_DOWN_1X_0
10
67.945418
20
50.246181
30
0
11
67.865011
21
50.246181
31
0
0
LINE
8
seepage_DOWN_1X_0
10
67.865011
20
50.246181
30
0
11
67.785621
21
50.233434
31
0
0
LINE
8
seepage_DOWN_1X_0
10
67.785621
20
50.233434
30
0
11
67.709256
21
50.208264
31
0
0
LINE
8
seepage_DOWN_1X_0
10
67.709256
20
50.208264
30
0
11
67.637847
21
50.171304
31
0
0
LINE
8
seepage_DOWN_1X_0
10
67.637847
20
50.171304
30
0
11
67.5732
21
50.123492
31
0
0
LINE
8
seepage_DOWN_1X_0
10
68.66962
20
49.737899
30
0
11
68.627143
21
49.797513
31
0
0
LINE
8
seepage_DOWN_1X_0
10
68.627143
20
49.797513
30
0
11
68.58095
21
49.854296
31
0
0
LINE
8
seepage_DOWN_1X_0
10
68.58095
20
49.854296
30
0
11
68.531227
21
49.908015
31
0
0
LINE
8
seepage_DOWN_1X_0
10
68.531227
20
49.908015
30
0
11
68.478178
21
49.958453
31
0
0
LINE
8
seepage_DOWN_1X_0
10
68.478178
20
49.958453
30
0
11
68.422019
21
50.005403
31
0
0
LINE
8
seepage_DOWN_1X_0
10
68.422019
20
50.005403
30
0
11
68.362979
21
50.048675
31
0
0
LINE
8
seepage_DOWN_1X_0
10
68.362979
20
50.048675
30
0
11
68.301299
21
50.088091
31
0
0
LINE
8
seepage_DOWN_1X_0
10
68.301299
20
50.088091
30
0
11
68.237229
21
50.123492
31
0
0
LINE
8
seepage_DOWN_1X_0
10
68.851315
20
49.256388
30
0
11
68.883902
21
49.290786
31
0
0
LINE
8
seepage_DOWN_1X_0
10
68.883902
20
49.290786
30
0
11
68.910113
21
49.330258
31
0
0
LINE
8
seepage_DOWN_1X_0
10
68.910113
20
49.330258
30
0
11
68.929174
21
49.373638
31
0
0
LINE
8
seepage_DOWN_1X_0
10
68.929174
20
49.373638
30
0
11
68.940521
21
49.419642
31
0
0
LINE
8
seepage_DOWN_1X_0
10
68.940521
20
49.419642
30
0
11
68.943817
21
49.466909
31
0
0
LINE
8
seepage_DOWN_1X_0
10
68.943817
20
49.466909
30
0
11
68.938967
21
49.514043
31
0
0
LINE
8
seepage_DOWN_1X_0
10
68.938967
20
49.514043
30
0
11
68.926113
21
49.559648
31
0
0
LINE
8
seepage_DOWN_1X_0
10
68.926113
20
49.559648
30
0
11
68.905635
21
49.602377
31
0
0
LINE
8
seepage_DOWN_1X_0
10
68.905635
20
49.602377
30
0
11
68.878139
21
49.640966
31
0
0
LINE
8
seepage_DOWN_1X_0
10
68.878139
20
49.640966
30
0
11
68.844437
21
49.674273
31
0
0
LINE
8
seepage_DOWN_1X_0
10
68.844437
20
49.674273
30
0
11
68.805528
21
49.701313
31
0
0
LINE
8
seepage_DOWN_1X_0
10
68.805528
20
49.701313
30
0
11
68.762561
21
49.721287
31
0
0
LINE
8
seepage_DOWN_1X_0
10
68.762561
20
49.721287
30
0
11
68.716808
21
49.733604
31
0
0
LINE
8
seepage_DOWN_1X_0
10
68.716808
20
49.733604
30
0
11
68.66962
21
49.737899
31
0
0
LINE
8
seepage_DOWN_1X_0
10
68.268114
20
48.797053
30
0
11
68.316592
21
48.754024
31
0
0
LINE
8
seepage_DOWN_1X_0
10
68.316592
20
48.754024
30
0
11
68.371792
21
48.720045
31
0
0
LINE
8
seepage_DOWN_1X_0
10
68.371792
20
48.720045
30
0
11
68.432044
21
48.696143
31
0
0
LINE
8
seepage_DOWN_1X_0
10
68.432044
20
48.696143
30
0
11
68.495526
21
48.683042
31
0
0
LINE
8
seepage_DOWN_1X_0
10
68.495526
20
48.683042
30
0
11
68.560318
21
48.681137
31
0
0
LINE
8
seepage_DOWN_1X_0
10
68.560318
20
48.681137
30
0
11
68.62446
21
48.690487
31
0
0
LINE
8
seepage_DOWN_1X_0
10
68.62446
20
48.690487
30
0
11
68.686012
21
48.710808
31
0
0
LINE
8
seepage_DOWN_1X_0
10
68.686012
20
48.710808
30
0
11
68.743113
21
48.741486
31
0
0
LINE
8
seepage_DOWN_1X_0
10
68.743113
20
48.741486
30
0
11
68.794035
21
48.781592
31
0
0
LINE
8
seepage_DOWN_1X_0
10
68.794035
20
48.781592
30
0
11
68.837238
21
48.829915
31
0
0
LINE
8
seepage_DOWN_1X_0
10
68.837238
20
48.829915
30
0
11
68.871417
21
48.884992
31
0
0
LINE
8
seepage_DOWN_1X_0
10
68.871417
20
48.884992
30
0
11
68.895535
21
48.945158
31
0
0
LINE
8
seepage_DOWN_1X_0
10
68.895535
20
48.945158
30
0
11
68.908866
21
49.008592
31
0
0
LINE
8
seepage_DOWN_1X_0
10
68.908866
20
49.008592
30
0
11
68.911004
21
49.073377
31
0
0
LINE
8
seepage_DOWN_1X_0
10
68.911004
20
49.073377
30
0
11
68.901886
21
49.137552
31
0
0
LINE
8
seepage_DOWN_1X_0
10
68.901886
20
49.137552
30
0
11
68.881787
21
49.199177
31
0
0
LINE
8
seepage_DOWN_1X_0
10
68.881787
20
49.199177
30
0
11
68.851315
21
49.256388
31
0
0
LINE
8
seepage_DOWN_1X_0
10
67.712183
20
48.53485
30
0
11
67.748872
21
48.497901
31
0
0
LINE
8
seepage_DOWN_1X_0
10
67.748872
20
48.497901
30
0
11
67.791099
21
48.467436
31
0
0
LINE
8
seepage_DOWN_1X_0
10
67.791099
20
48.467436
30
0
11
67.837733
21
48.44427
31
0
0
LINE
8
seepage_DOWN_1X_0
10
67.837733
20
48.44427
30
0
11
67.887523
21
48.429028
31
0
0
LINE
8
seepage_DOWN_1X_0
10
67.887523
20
48.429028
30
0
11
67.939132
21
48.422116
31
0
0
LINE
8
seepage_DOWN_1X_0
10
67.939132
20
48.422116
30
0
11
67.991178
21
48.423721
31
0
0
LINE
8
seepage_DOWN_1X_0
10
67.991178
20
48.423721
30
0
11
68.042264
21
48.433799
31
0
0
LINE
8
seepage_DOWN_1X_0
10
68.042264
20
48.433799
30
0
11
68.09102
21
48.452081
31
0
0
LINE
8
seepage_DOWN_1X_0
10
68.09102
20
48.452081
30
0
11
68.136138
21
48.478075
31
0
0
LINE
8
seepage_DOWN_1X_0
10
68.136138
20
48.478075
30
0
11
68.176409
21
48.511084
31
0
0
LINE
8
seepage_DOWN_1X_0
10
68.176409
20
48.511084
30
0
11
68.210751
21
48.550224
31
0
0
LINE
8
seepage_DOWN_1X_0
10
68.210751
20
48.550224
30
0
11
68.238245
21
48.594444
31
0
0
LINE
8
seepage_DOWN_1X_0
10
68.238245
20
48.594444
30
0
11
68.258152
21
48.642559
31
0
0
LINE
8
seepage_DOWN_1X_0
10
68.258152
20
48.642559
30
0
11
68.269939
21
48.693278
31
0
0
LINE
8
seepage_DOWN_1X_0
10
68.269939
20
48.693278
30
0
11
68.27329
21
48.745241
31
0
0
LINE
8
seepage_DOWN_1X_0
10
68.27329
20
48.745241
30
0
11
68.268114
21
48.797053
31
0
0
LINE
8
seepage_DOWN_1X_0
10
67.233464
20
48.272648
30
0
11
67.278684
21
48.24874
31
0
0
LINE
8
seepage_DOWN_1X_0
10
67.278684
20
48.24874
30
0
11
67.32721
21
48.232564
31
0
0
LINE
8
seepage_DOWN_1X_0
10
67.32721
20
48.232564
30
0
11
67.37773
21
48.224557
31
0
0
LINE
8
seepage_DOWN_1X_0
10
67.37773
20
48.224557
30
0
11
67.42888
21
48.224934
31
0
0
LINE
8
seepage_DOWN_1X_0
10
67.42888
20
48.224934
30
0
11
67.479276
21
48.233687
31
0
0
LINE
8
seepage_DOWN_1X_0
10
67.479276
20
48.233687
30
0
11
67.527558
21
48.250577
31
0
0
LINE
8
seepage_DOWN_1X_0
10
67.527558
20
48.250577
30
0
11
67.572421
21
48.275149
31
0
0
LINE
8
seepage_DOWN_1X_0
10
67.572421
20
48.275149
30
0
11
67.612651
21
48.306738
31
0
0
LINE
8
seepage_DOWN_1X_0
10
67.612651
20
48.306738
30
0
11
67.647163
21
48.344493
31
0
0
LINE
8
seepage_DOWN_1X_0
10
67.647163
20
48.344493
30
0
11
67.675024
21
48.38739
31
0
0
LINE
8
seepage_DOWN_1X_0
10
67.675024
20
48.38739
30
0
11
67.69548
21
48.434272
31
0
0
LINE
8
seepage_DOWN_1X_0
10
67.69548
20
48.434272
30
0
11
67.707979
21
48.483873
31
0
0
LINE
8
seepage_DOWN_1X_0
10
67.707979
20
48.483873
30
0
11
67.712183
21
48.53485
31
0
0
LINE
8
seepage_DOWN_1X_0
10
66.940056
20
48.642816
30
0
11
66.926627
21
48.600789
31
0
0
LINE
8
seepage_DOWN_1X_0
10
66.926627
20
48.600789
30
0
11
66.920208
21
48.557139
31
0
0
LINE
8
seepage_DOWN_1X_0
10
66.920208
20
48.557139
30
0
11
66.920968
21
48.513025
31
0
0
LINE
8
seepage_DOWN_1X_0
10
66.920968
20
48.513025
30
0
11
66.928887
21
48.469621
31
0
0
LINE
8
seepage_DOWN_1X_0
10
66.928887
20
48.469621
30
0
11
66.943756
21
48.428082
31
0
0
LINE
8
seepage_DOWN_1X_0
10
66.943756
20
48.428082
30
0
11
66.965178
21
48.389511
31
0
0
LINE
8
seepage_DOWN_1X_0
10
66.965178
20
48.389511
30
0
11
66.992584
21
48.354935
31
0
0
LINE
8
seepage_DOWN_1X_0
10
66.992584
20
48.354935
30
0
11
67.025245
21
48.325273
31
0
0
LINE
8
seepage_DOWN_1X_0
10
67.025245
20
48.325273
30
0
11
67.062293
21
48.301314
31
0
0
LINE
8
seepage_DOWN_1X_0
10
67.062293
20
48.301314
30
0
11
67.102743
21
48.283695
31
0
0
LINE
8
seepage_DOWN_1X_0
10
67.102743
20
48.283695
30
0
11
67.145518
21
48.272883
31
0
0
LINE
8
seepage_DOWN_1X_0
10
67.145518
20
48.272883
30
0
11
67.189481
21
48.269168
31
0
0
LINE
8
seepage_DOWN_1X_0
10
67.189481
20
48.269168
30
0
11
67.233464
21
48.272648
31
0
0
LINE
8
seepage_DOWN_1X_0
10
66.306912
20
48.180105
30
0
11
66.394884
21
48.167468
31
0
0
LINE
8
seepage_DOWN_1X_0
10
66.394884
20
48.167468
30
0
11
66.483721
21
48.17007
31
0
0
LINE
8
seepage_DOWN_1X_0
10
66.483721
20
48.17007
30
0
11
66.570803
21
48.187834
31
0
0
LINE
8
seepage_DOWN_1X_0
10
66.570803
20
48.187834
30
0
11
66.653561
21
48.220236
31
0
0
LINE
8
seepage_DOWN_1X_0
10
66.653561
20
48.220236
30
0
11
66.729555
21
48.26632
31
0
0
LINE
8
seepage_DOWN_1X_0
10
66.729555
20
48.26632
30
0
11
66.796542
21
48.324728
31
0
0
LINE
8
seepage_DOWN_1X_0
10
66.796542
20
48.324728
30
0
11
66.852548
21
48.393737
31
0
0
LINE
8
seepage_DOWN_1X_0
10
66.852548
20
48.393737
30
0
11
66.89592
21
48.47131
31
0
0
LINE
8
seepage_DOWN_1X_0
10
66.89592
20
48.47131
30
0
11
66.925379
21
48.555161
31
0
0
LINE
8
seepage_DOWN_1X_0
10
66.925379
20
48.555161
30
0
11
66.940056
21
48.642816
31
0
0
LINE
8
seepage_DOWN_1X_0
10
65.488458
20
48.180105
30
0
11
65.555368
21
48.116451
31
0
0
LINE
8
seepage_DOWN_1X_0
10
65.555368
20
48.116451
30
0
11
65.63203
21
48.064958
31
0
0
LINE
8
seepage_DOWN_1X_0
10
65.63203
20
48.064958
30
0
11
65.716262
21
48.027091
31
0
0
LINE
8
seepage_DOWN_1X_0
10
65.716262
20
48.027091
30
0
11
65.805663
21
48.003932
31
0
0
LINE
8
seepage_DOWN_1X_0
10
65.805663
20
48.003932
30
0
11
65.897685
21
47.996137
31
0
0
LINE
8
seepage_DOWN_1X_0
10
65.897685
20
47.996137
30
0
11
65.989707
21
48.003932
31
0
0
LINE
8
seepage_DOWN_1X_0
10
65.989707
20
48.003932
30
0
11
66.079107
21
48.027091
31
0
0
LINE
8
seepage_DOWN_1X_0
10
66.079107
20
48.027091
30
0
11
66.163339
21
48.064958
31
0
0
LINE
8
seepage_DOWN_1X_0
10
66.163339
20
48.064958
30
0
11
66.240002
21
48.116451
31
0
0
LINE
8
seepage_DOWN_1X_0
10
66.240002
20
48.116451
30
0
11
66.306912
21
48.180105
31
0
0
LINE
8
seepage_DOWN_1X_0
10
65.210492
20
47.732819
30
0
11
65.25694
21
47.723244
31
0
0
LINE
8
seepage_DOWN_1X_0
10
65.25694
20
47.723244
30
0
11
65.304344
21
47.721857
31
0
0
LINE
8
seepage_DOWN_1X_0
10
65.304344
20
47.721857
30
0
11
65.351273
21
47.728697
31
0
0
LINE
8
seepage_DOWN_1X_0
10
65.351273
20
47.728697
30
0
11
65.396308
21
47.743558
31
0
0
LINE
8
seepage_DOWN_1X_0
10
65.396308
20
47.743558
30
0
11
65.438091
21
47.765992
31
0
0
LINE
8
seepage_DOWN_1X_0
10
65.438091
20
47.765992
30
0
11
65.475358
21
47.795321
31
0
0
LINE
8
seepage_DOWN_1X_0
10
65.475358
20
47.795321
30
0
11
65.506986
21
47.830659
31
0
0
LINE
8
seepage_DOWN_1X_0
10
65.506986
20
47.830659
30
0
11
65.532018
21
47.870939
31
0
0
LINE
8
seepage_DOWN_1X_0
10
65.532018
20
47.870939
30
0
11
65.549698
21
47.914944
31
0
0
LINE
8
seepage_DOWN_1X_0
10
65.549698
20
47.914944
30
0
11
65.559493
21
47.961346
31
0
0
LINE
8
seepage_DOWN_1X_0
10
65.559493
20
47.961346
30
0
11
65.561107
21
48.008743
31
0
0
LINE
8
seepage_DOWN_1X_0
10
65.561107
20
48.008743
30
0
11
65.55449
21
48.055703
31
0
0
LINE
8
seepage_DOWN_1X_0
10
65.55449
20
48.055703
30
0
11
65.539843
21
48.100809
31
0
0
LINE
8
seepage_DOWN_1X_0
10
65.539843
20
48.100809
30
0
11
65.517609
21
48.142698
31
0
0
LINE
8
seepage_DOWN_1X_0
10
65.517609
20
48.142698
30
0
11
65.488458
21
48.180105
31
0
0
LINE
8
seepage_DOWN_1X_0
10
65.133279
20
48.2418
30
0
11
65.108473
21
48.178191
31
0
0
LINE
8
seepage_DOWN_1X_0
10
65.108473
20
48.178191
30
0
11
65.093401
21
48.1116
31
0
0
LINE
8
seepage_DOWN_1X_0
10
65.093401
20
48.1116
30
0
11
65.0884
21
48.043508
31
0
0
LINE
8
seepage_DOWN_1X_0
10
65.0884
20
48.043508
30
0
11
65.093579
21
47.97543
31
0
0
LINE
8
seepage_DOWN_1X_0
10
65.093579
20
47.97543
30
0
11
65.108823
21
47.908879
31
0
0
LINE
8
seepage_DOWN_1X_0
10
65.108823
20
47.908879
30
0
11
65.133795
21
47.845334
31
0
0
LINE
8
seepage_DOWN_1X_0
10
65.133795
20
47.845334
30
0
11
65.167937
21
47.786209
31
0
0
LINE
8
seepage_DOWN_1X_0
10
65.167937
20
47.786209
30
0
11
65.210492
21
47.732819
31
0
0
LINE
8
seepage_DOWN_1X_0
10
65.488458
20
48.180105
30
0
11
65.45354
21
48.21411
31
0
0
LINE
8
seepage_DOWN_1X_0
10
65.45354
20
48.21411
30
0
11
65.413332
21
48.241658
31
0
0
LINE
8
seepage_DOWN_1X_0
10
65.413332
20
48.241658
30
0
11
65.369013
21
48.261941
31
0
0
LINE
8
seepage_DOWN_1X_0
10
65.369013
20
48.261941
30
0
11
65.321883
21
48.274364
31
0
0
LINE
8
seepage_DOWN_1X_0
10
65.321883
20
48.274364
30
0
11
65.273325
21
48.278562
31
0
0
LINE
8
seepage_DOWN_1X_0
10
65.273325
20
48.278562
30
0
11
65.224761
21
48.274413
31
0
0
LINE
8
seepage_DOWN_1X_0
10
65.224761
20
48.274413
30
0
11
65.177619
21
48.262038
31
0
0
LINE
8
seepage_DOWN_1X_0
10
65.177619
20
48.262038
30
0
11
65.133279
21
48.2418
31
0
0
LINE
8
seepage_DOWN_1X_0
10
65.416656
20
49.260491
30
0
11
65.371978
21
49.234254
31
0
0
LINE
8
seepage_DOWN_1X_0
10
65.371978
20
49.234254
30
0
11
65.332493
21
49.200706
31
0
0
LINE
8
seepage_DOWN_1X_0
10
65.332493
20
49.200706
30
0
11
65.299385
21
49.160852
31
0
0
LINE
8
seepage_DOWN_1X_0
10
65.299385
20
49.160852
30
0
11
65.273645
21
49.115886
31
0
0
LINE
8
seepage_DOWN_1X_0
10
65.273645
20
49.115886
30
0
11
65.256044
21
49.067155
31
0
0
LINE
8
seepage_DOWN_1X_0
10
65.256044
20
49.067155
30
0
11
65.24711
21
49.016119
31
0
0
LINE
8
seepage_DOWN_1X_0
10
65.24711
20
49.016119
30
0
11
65.24711
21
48.964307
31
0
0
LINE
8
seepage_DOWN_1X_0
10
65.24711
20
48.964307
30
0
11
65.256044
21
48.913271
31
0
0
LINE
8
seepage_DOWN_1X_0
10
65.256044
20
48.913271
30
0
11
65.273645
21
48.86454
31
0
0
LINE
8
seepage_DOWN_1X_0
10
65.273645
20
48.86454
30
0
11
65.299385
21
48.819574
31
0
0
LINE
8
seepage_DOWN_1X_0
10
65.299385
20
48.819574
30
0
11
65.332493
21
48.77972
31
0
0
LINE
8
seepage_DOWN_1X_0
10
65.332493
20
48.77972
30
0
11
65.371978
21
48.746172
31
0
0
LINE
8
seepage_DOWN_1X_0
10
65.371978
20
48.746172
30
0
11
65.416656
21
48.719935
31
0
0
LINE
8
seepage_DOWN_1X_0
10
65.416656
20
48.719935
30
0
11
65.375483
21
48.698981
31
0
0
LINE
8
seepage_DOWN_1X_0
10
65.375483
20
48.698981
30
0
11
65.338292
21
48.671576
31
0
0
LINE
8
seepage_DOWN_1X_0
10
65.338292
20
48.671576
30
0
11
65.306084
21
48.638456
31
0
0
LINE
8
seepage_DOWN_1X_0
10
65.306084
20
48.638456
30
0
11
65.279728
21
48.600514
31
0
0
LINE
8
seepage_DOWN_1X_0
10
65.279728
20
48.600514
30
0
11
65.259932
21
48.558772
31
0
0
LINE
8
seepage_DOWN_1X_0
10
65.259932
20
48.558772
30
0
11
65.24723
21
48.514354
31
0
0
LINE
8
seepage_DOWN_1X_0
10
65.24723
20
48.514354
30
0
11
65.241965
21
48.468457
31
0
0
LINE
8
seepage_DOWN_1X_0
10
65.241965
20
48.468457
30
0
11
65.244277
21
48.422317
31
0
0
LINE
8
seepage_DOWN_1X_0
10
65.244277
20
48.422317
30
0
11
65.254106
21
48.377177
31
0
0
LINE
8
seepage_DOWN_1X_0
10
65.254106
20
48.377177
30
0
11
65.271185
21
48.334252
31
0
0
LINE
8
seepage_DOWN_1X_0
10
65.271185
20
48.334252
30
0
11
65.295056
21
48.294699
31
0
0
LINE
8
seepage_DOWN_1X_0
10
65.295056
20
48.294699
30
0
11
65.325074
21
48.259583
31
0
0
LINE
8
seepage_DOWN_1X_0
10
65.325074
20
48.259583
30
0
11
65.360432
21
48.22985
31
0
0
LINE
8
seepage_DOWN_1X_0
10
65.360432
20
48.22985
30
0
11
65.400177
21
48.2063
31
0
0
LINE
8
seepage_DOWN_1X_0
10
65.400177
20
48.2063
30
0
11
65.443239
21
48.189569
31
0
0
LINE
8
seepage_DOWN_1X_0
10
65.443239
20
48.189569
30
0
11
65.488458
21
48.180105
31
0
0
LINE
8
seepage_DOWN_1X_0
10
64.808986
20
47.547734
30
0
11
64.843867
21
47.524036
31
0
0
LINE
8
seepage_DOWN_1X_0
10
64.843867
20
47.524036
30
0
11
64.88228
21
47.506636
31
0
0
LINE
8
seepage_DOWN_1X_0
10
64.88228
20
47.506636
30
0
11
64.923098
21
47.496046
31
0
0
LINE
8
seepage_DOWN_1X_0
10
64.923098
20
47.496046
30
0
11
64.965124
21
47.492574
31
0
0
LINE
8
seepage_DOWN_1X_0
10
64.965124
20
47.492574
30
0
11
65.007126
21
47.496324
31
0
0
LINE
8
seepage_DOWN_1X_0
10
65.007126
20
47.496324
30
0
11
65.047874
21
47.507185
31
0
0
LINE
8
seepage_DOWN_1X_0
10
65.047874
20
47.507185
30
0
11
65.08617
21
47.524839
31
0
0
LINE
8
seepage_DOWN_1X_0
10
65.08617
20
47.524839
30
0
11
65.120893
21
47.548767
31
0
0
LINE
8
seepage_DOWN_1X_0
10
65.120893
20
47.548767
30
0
11
65.151025
21
47.578269
31
0
0
LINE
8
seepage_DOWN_1X_0
10
65.151025
20
47.578269
30
0
11
65.17568
21
47.61248
31
0
0
LINE
8
seepage_DOWN_1X_0
10
65.17568
20
47.61248
30
0
11
65.194139
21
47.650395
31
0
0
LINE
8
seepage_DOWN_1X_0
10
65.194139
20
47.650395
30
0
11
65.205857
21
47.690904
31
0
0
LINE
8
seepage_DOWN_1X_0
10
65.205857
20
47.690904
30
0
11
65.210492
21
47.732819
31
0
0
LINE
8
seepage_DOWN_1X_0
10
64.808986
20
47.547734
30
0
11
64.837112
21
47.5627
31
0
0
LINE
8
seepage_DOWN_1X_0
10
64.837112
20
47.5627
30
0
11
64.863352
21
47.58077
31
0
0
LINE
8
seepage_DOWN_1X_0
10
64.863352
20
47.58077
30
0
11
64.887364
21
47.60171
31
0
0
LINE
8
seepage_DOWN_1X_0
10
64.887364
20
47.60171
30
0
11
64.908836
21
47.625248
31
0
0
LINE
8
seepage_DOWN_1X_0
10
64.908836
20
47.625248
30
0
11
64.927489
21
47.651076
31
0
0
LINE
8
seepage_DOWN_1X_0
10
64.927489
20
47.651076
30
0
11
64.94308
21
47.67886
31
0
0
LINE
8
seepage_DOWN_1X_0
10
64.94308
20
47.67886
30
0
11
64.955406
21
47.708239
31
0
0
LINE
8
seepage_DOWN_1X_0
10
64.955406
20
47.708239
30
0
11
64.964308
21
47.73883
31
0
0
LINE
8
seepage_DOWN_1X_0
10
65.210492
20
47.732819
30
0
11
65.183182
21
47.75148
31
0
0
LINE
8
seepage_DOWN_1X_0
10
65.183182
20
47.75148
30
0
11
65.153187
21
47.765423
31
0
0
LINE
8
seepage_DOWN_1X_0
10
65.153187
20
47.765423
30
0
11
65.121315
21
47.774273
31
0
0
LINE
8
seepage_DOWN_1X_0
10
65.121315
20
47.774273
30
0
11
65.088425
21
47.777791
31
0
0
LINE
8
seepage_DOWN_1X_0
10
65.088425
20
47.777791
30
0
11
65.055402
21
47.775883
31
0
0
LINE
8
seepage_DOWN_1X_0
10
65.055402
20
47.775883
30
0
11
65.023137
21
47.7686
31
0
0
LINE
8
seepage_DOWN_1X_0
10
65.023137
20
47.7686
30
0
11
64.992497
21
47.756136
31
0
0
LINE
8
seepage_DOWN_1X_0
10
64.992497
20
47.756136
30
0
11
64.964308
21
47.73883
31
0
0
LINE
8
crack_diag_UP_1X_0
10
0
20
78.562252
30
0
11
1.63457
21
80.031572
31
0
0
LINE
8
crack_diag_UP_1X_0
10
1.63457
20
80.031572
30
0
11
4.413346
21
80.031572
31
0
0
LINE
8
crack_diag_UP_1X_0
10
4.413346
20
80.031572
30
0
11
8.826694
21
85.092568
31
0
0
LINE
8
crack_diag_ORIGINAL_0
10
28.826694
20
78.562252
30
0
11
29.643979
21
79.296912
31
0
0
LINE
8
crack_diag_ORIGINAL_0
10
29.643979
20
79.296912
30
0
11
31.033367
21
79.296912
31
0
0
LINE
8
crack_diag_ORIGINAL_0
10
31.033367
20
79.296912
30
0
11
33.240041
21
81.82741
31
0
0
LINE
8
crack_diag_DOWN_1X_0
10
53.240041
20
78.562252
30
0
11
53.648684
21
78.929582
31
0
0
LINE
8
crack_diag_DOWN_1X_0
10
53.648684
20
78.929582
30
0
11
54.343378
21
78.929582
31
0
0
LINE
8
crack_diag_DOWN_1X_0
10
54.343378
20
78.929582
30
0
11
55.446715
21
80.194831
31
0
0
LINE
8
damage_UP_1X_0
10
0.014714
20
114.223554
30
0
11
20.314024
21
114.223554
31
0
0
LINE
8
damage_UP_1X_0
10
20.314024
20
114.223554
30
0
11
20.314024
21
105.094174
31
0
0
LINE
8
damage_UP_1X_0
10
20.314024
20
105.094174
30
0
11
0.014714
21
105.094174
31
0
0
LINE
8
damage_UP_1X_0
10
0.014714
20
105.094174
30
0
11
0.014714
21
114.223554
31
0
0
LINE
8
damage_UP_1X_0
10
0.014714
20
109.658864
30
0
11
2.417506
21
114.219028
31
0
0
LINE
8
damage_UP_1X_0
10
2.417506
20
114.219028
30
0
11
6.490842
21
105.10517
31
0
0
LINE
8
damage_UP_1X_0
10
6.490842
20
105.10517
30
0
11
10.234026
21
114.20355
31
0
0
LINE
8
damage_UP_1X_0
10
10.234026
20
114.20355
30
0
11
14.053602
21
105.10517
31
0
0
LINE
8
damage_UP_1X_0
10
14.053602
20
105.10517
30
0
11
17.660364
21
114.204466
31
0
0
LINE
8
damage_UP_1X_0
10
17.660364
20
114.204466
30
0
11
20.308604
21
109.58529
31
0
0
LINE
8
damage_UP_1X_0
10
2.291804
20
105.092568
30
0
11
6.404318
21
114.241846
31
0
0
LINE
8
damage_UP_1X_0
10
6.404318
20
114.241846
30
0
11
10.593226
21
105.105292
31
0
0
LINE
8
damage_UP_1X_0
10
10.593226
20
105.105292
30
0
11
14.336506
21
114.216396
31
0
0
LINE
8
damage_UP_1X_0
10
14.336506
20
114.216396
30
0
11
18.05432
21
105.105292
31
0
0
LINE
8
damage_UP_1X_0
10
0
20
109.69902
30
0
11
20.282462
21
109.59722
31
0
0
LINE
8
damage_UP_1X_0
10
0.025464
20
105.945142
30
0
11
20.307928
21
105.983318
31
0
0
LINE
8
damage_UP_1X_0
10
0
20
113.401996
30
0
11
20.295196
21
113.401996
31
0
0
LINE
8
damage_ORIGINAL_0
10
40.321381
20
109.658061
30
0
11
50.471036
21
109.658061
31
0
0
LINE
8
damage_ORIGINAL_0
10
50.471036
20
109.658061
30
0
11
50.471036
21
105.093371
31
0
0
LINE
8
damage_ORIGINAL_0
10
50.471036
20
105.093371
30
0
11
40.321381
21
105.093371
31
0
0
LINE
8
damage_ORIGINAL_0
10
40.321381
20
105.093371
30
0
11
40.321381
21
109.658061
31
0
0
LINE
8
damage_ORIGINAL_0
10
40.321381
20
107.375716
30
0
11
41.522777
21
109.655798
31
0
0
LINE
8
damage_ORIGINAL_0
10
41.522777
20
109.655798
30
0
11
43.559445
21
105.098869
31
0
0
LINE
8
damage_ORIGINAL_0
10
43.559445
20
105.098869
30
0
11
45.431037
21
109.648059
31
0
0
LINE
8
damage_ORIGINAL_0
10
45.431037
20
109.648059
30
0
11
47.340825
21
105.098869
31
0
0
LINE
8
damage_ORIGINAL_0
10
47.340825
20
105.098869
30
0
11
49.144206
21
109.648517
31
0
0
LINE
8
damage_ORIGINAL_0
10
49.144206
20
109.648517
30
0
11
50.468326
21
107.338929
31
0
0
LINE
8
damage_ORIGINAL_0
10
41.459926
20
105.092568
30
0
11
43.516183
21
109.667207
31
0
0
LINE
8
damage_ORIGINAL_0
10
43.516183
20
109.667207
30
0
11
45.610637
21
105.09893
31
0
0
LINE
8
damage_ORIGINAL_0
10
45.610637
20
105.09893
30
0
11
47.482277
21
109.654482
31
0
0
LINE
8
damage_ORIGINAL_0
10
47.482277
20
109.654482
30
0
11
49.341184
21
105.09893
31
0
0
LINE
8
damage_ORIGINAL_0
10
40.314024
20
107.395794
30
0
11
50.455255
21
107.344894
31
0
0
LINE
8
damage_ORIGINAL_0
10
40.326756
20
105.518855
30
0
11
50.467988
21
105.537943
31
0
0
LINE
8
damage_ORIGINAL_0
10
40.314024
20
109.247282
30
0
11
50.461622
21
109.247282
31
0
0
LINE
8
damage_DOWN_1X_0
10
70.474715
20
107.375315
30
0
11
75.549542
21
107.375315
31
0
0
LINE
8
damage_DOWN_1X_0
10
75.549542
20
107.375315
30
0
11
75.549542
21
105.092969
31
0
0
LINE
8
damage_DOWN_1X_0
10
75.549542
20
105.092969
30
0
11
70.474715
21
105.092969
31
0
0
LINE
8
damage_DOWN_1X_0
10
70.474715
20
105.092969
30
0
11
70.474715
21
107.375315
31
0
0
LINE
8
damage_DOWN_1X_0
10
70.474715
20
106.234142
30
0
11
71.075412
21
107.374183
31
0
0
LINE
8
damage_DOWN_1X_0
10
71.075412
20
107.374183
30
0
11
72.093746
21
105.095719
31
0
0
LINE
8
damage_DOWN_1X_0
10
72.093746
20
105.095719
30
0
11
73.029542
21
107.370313
31
0
0
LINE
8
damage_DOWN_1X_0
10
73.029542
20
107.370313
30
0
11
73.984437
21
105.095719
31
0
0
LINE
8
damage_DOWN_1X_0
10
73.984437
20
105.095719
30
0
11
74.886127
21
107.370542
31
0
0
LINE
8
damage_DOWN_1X_0
10
74.886127
20
107.370542
30
0
11
75.548187
21
106.215749
31
0
0
LINE
8
damage_DOWN_1X_0
10
71.043987
20
105.092568
30
0
11
72.072115
21
107.379887
31
0
0
LINE
8
damage_DOWN_1X_0
10
72.072115
20
107.379887
30
0
11
73.119343
21
105.095749
31
0
0
LINE
8
damage_DOWN_1X_0
10
73.119343
20
105.095749
30
0
11
74.055162
21
107.373525
31
0
0
LINE
8
damage_DOWN_1X_0
10
74.055162
20
107.373525
30
0
11
74.984616
21
105.095749
31
0
0
LINE
8
damage_DOWN_1X_0
10
70.471036
20
106.244181
30
0
11
75.541652
21
106.218731
31
0
0
LINE
8
damage_DOWN_1X_0
10
70.477402
20
105.305712
30
0
11
75.548018
21
105.315256
31
0
0
LINE
8
damage_DOWN_1X_0
10
70.471036
20
107.169925
30
0
11
75.544835
21
107.169925
31
0
0
LINE
8
crack_trans_UP_1X_0
10
0.532256
20
146.468374
30
0
11
0
21
134.241846
31
0
0
LINE
8
crack_trans_ORIGINAL_0
10
22.266128
20
140.35511
30
0
11
22
21
134.241846
31
0
0
LINE
8
crack_trans_DOWN_1X_0
10
43.133064
20
137.298478
30
0
11
43
21
134.241846
31
0
0
LINE
8
rebar_UP_1X_0
10
0
20
167.29007
30
0
11
11.248552
21
167.106656
31
0
0
LINE
8
rebar_UP_1X_0
10
0.69009
20
166.769638
30
0
11
0.695838
21
167.977914
31
0
0
LINE
8
rebar_UP_1X_0
10
1.89878
20
166.643936
30
0
11
1.904528
21
167.852212
31
0
0
LINE
8
rebar_UP_1X_0
10
3.115528
20
166.651428
30
0
11
3.121276
21
167.859704
31
0
0
LINE
8
rebar_UP_1X_0
10
4.438732
20
166.620642
30
0
11
4.444482
21
167.828918
31
0
0
LINE
8
rebar_UP_1X_0
10
5.654652
20
166.592352
30
0
11
5.6604
21
167.800628
31
0
0
LINE
8
rebar_UP_1X_0
10
6.763282
20
166.566558
30
0
11
6.76903
21
167.774834
31
0
0
LINE
8
rebar_UP_1X_0
10
8.336824
20
166.529948
30
0
11
8.342572
21
167.738224
31
0
0
LINE
8
rebar_UP_1X_0
10
9.44462
20
166.468374
30
0
11
9.450368
21
167.67665
31
0
0
LINE
8
rebar_ORIGINAL_0
10
31.248552
20
166.879222
30
0
11
36.872828
21
166.787515
31
0
0
LINE
8
rebar_ORIGINAL_0
10
31.593597
20
166.619006
30
0
11
31.596471
21
167.223144
31
0
0
LINE
8
rebar_ORIGINAL_0
10
32.197942
20
166.556155
30
0
11
32.200816
21
167.160293
31
0
0
LINE
8
rebar_ORIGINAL_0
10
32.806316
20
166.559901
30
0
11
32.80919
21
167.164039
31
0
0
LINE
8
rebar_ORIGINAL_0
10
33.467918
20
166.544508
30
0
11
33.470793
21
167.148646
31
0
0
LINE
8
rebar_ORIGINAL_0
10
34.075878
20
166.530363
30
0
11
34.078752
21
167.134501
31
0
0
LINE
8
rebar_ORIGINAL_0
10
34.630193
20
166.517466
30
0
11
34.633067
21
167.121604
31
0
0
LINE
8
rebar_ORIGINAL_0
10
35.416964
20
166.499161
30
0
11
35.419838
21
167.103299
31
0
0
LINE
8
rebar_ORIGINAL_0
10
35.970862
20
166.468374
30
0
11
35.973736
21
167.072512
31
0
0
LINE
8
rebar_DOWN_1X_0
10
56.872828
20
166.673798
30
0
11
59.684966
21
166.627945
31
0
0
LINE
8
rebar_DOWN_1X_0
10
57.04535
20
166.54369
30
0
11
57.046788
21
166.845759
31
0
0
LINE
8
rebar_DOWN_1X_0
10
57.347523
20
166.512265
30
0
11
57.34896
21
166.814334
31
0
0
LINE
8
rebar_DOWN_1X_0
10
57.65171
20
166.514138
30
0
11
57.653147
21
166.816207
31
0
0
LINE
8
rebar_DOWN_1X_0
10
57.982511
20
166.506441
30
0
11
57.983948
21
166.80851
31
0
0
LINE
8
rebar_DOWN_1X_0
10
58.286491
20
166.499369
30
0
11
58.287928
21
166.801438
31
0
0
LINE
8
rebar_DOWN_1X_0
10
58.563648
20
166.49292
30
0
11
58.565085
21
166.794989
31
0
0
LINE
8
rebar_DOWN_1X_0
10
58.957034
20
166.483767
30
0
11
58.958471
21
166.785837
31
0
0
LINE
8
rebar_DOWN_1X_0
10
59.233983
20
166.468374
30
0
11
59.23542
21
166.770443
31
0
0
ENDSEC
0
EOF
